<svg width="1366" height="768" viewBox="0 0 1366 768" fill="none" xmlns="http://www.w3.org/2000/svg">
<mask id="mask0_9_550" style="mask-type:alpha" maskUnits="userSpaceOnUse" x="0" y="0" width="1367" height="768">
<rect width="1367" height="768" fill="#D9D9D9"/>
</mask>
<g mask="url(#mask0_9_550)">
<path d="M86 279C123.61 301 211.242 348.6 260.887 363C310.532 377.4 364.314 381 385 381" stroke="black"/>
<path d="M57 363C94.6101 385 185.355 412.6 235 427C284.645 441.4 342.314 437 363 437" stroke="black"/>
<path d="M86 463C122.75 473.022 211.418 485.596 259.928 492.156C308.438 498.716 364.788 496.712 385 496.712" stroke="black"/>
<path d="M283 462C308.196 472.022 368.989 484.596 402.248 491.156C435.507 497.716 474.142 495.712 488 495.712" stroke="black"/>
<path d="M297 366C322.196 388.108 382.989 415.844 416.248 430.315C449.507 444.785 488.142 440.364 502 440.364" stroke="black"/>
<path d="M275 279C301.792 301 364.219 348.6 399.585 363C434.951 377.4 473.264 381 488 381" stroke="black"/>
<ellipse cx="613.5" cy="637.5" rx="637.5" ry="65.5" fill="#D9D9D9"/>
<ellipse cx="1064.5" cy="558.5" rx="343.5" ry="37.5" fill="#D9D9D9"/>
</g>
<path d="M228.03 257.452L178.699 206.589L130.79 257.416L126.389 253.271L178.64 197.837L232.379 253.235L228.03 257.452Z" fill="#475073"/>
<path d="M228.03 344.606L178.699 293.75L130.79 344.573L126.389 340.426L178.64 284.998L232.379 340.393L228.03 344.606Z" fill="#475073"/>
<path d="M228.03 440.477L178.699 389.621L130.79 440.444L126.389 436.293L178.64 380.862L232.379 436.26L228.03 440.477Z" fill="#475073"/>
<path d="M208.254 647.387H152.434L165 130.733H195.688L208.254 647.387Z" fill="#6E77A2"/>
<path d="M194.298 631.777H166.39L172.671 130.733H188.017L194.298 631.777Z" fill="#475073"/>
<path d="M244.221 654.034H121.673L134.245 625.735H231.646L244.221 654.034Z" fill="#6E77A2"/>
<path d="M208.25 112.311H152.434V144.12H208.25V112.311Z" fill="#475073"/>
<path d="M279.837 246.578H86.0506V264.112H279.837V246.578Z" fill="#475073"/>
<path d="M279.837 429.603H86.0506V447.14H279.837V429.603Z" fill="#475073"/>
<path d="M304.942 333.729H52.3774V351.263H304.942V333.729Z" fill="#475073"/>
<path d="M93.7581 246.578H86.0506V289.376H93.7581V246.578Z" fill="#6E77A2"/>
<path d="M279.837 246.578H272.133V289.376H279.837V246.578Z" fill="#6E77A2"/>
<path d="M97.561 272.125H82.8624V300.45H97.561V272.125Z" fill="#66B4D8"/>
<path d="M60.2492 333.729H52.5417V376.524H60.2492V333.729Z" fill="#6E77A2"/>
<path d="M64.0488 359.289H49.3502V387.611H64.0488V359.289Z" fill="#66B4D8"/>
<path d="M283.078 429.603H275.367V472.397H283.078V429.603Z" fill="#6E77A2"/>
<path d="M286.881 455.149H272.179V483.475H286.881V455.149Z" fill="#66B4D8"/>
<path d="M93.7581 429.603H86.0506V472.397H93.7581V429.603Z" fill="#6E77A2"/>
<path d="M97.561 455.149H82.8624V483.475H97.561V455.149Z" fill="#66B4D8"/>
<path d="M304.958 333.729H297.254V376.524H304.958V333.729Z" fill="#6E77A2"/>
<path d="M308.758 359.289H294.062V387.611H308.758V359.289Z" fill="#66B4D8"/>
<path d="M283.331 272.125H268.632V300.45H283.331V272.125Z" fill="#66B4D8"/>
<path d="M459.868 374.896L432.61 346.858L406.138 374.876L403.707 372.591L432.577 342.034L462.27 372.571L459.868 374.896Z" fill="#475073"/>
<path d="M459.868 422.938L432.61 394.905L406.138 422.92L403.707 420.634L432.577 390.08L462.27 420.616L459.868 422.938Z" fill="#475073"/>
<path d="M459.868 475.786L432.61 447.752L406.138 475.768L403.707 473.479L432.577 442.924L462.27 473.461L459.868 475.786Z" fill="#475073"/>
<path d="M448.94 589.842H418.097L425.04 305.044H441.997L448.94 589.842Z" fill="#6E77A2"/>
<path d="M441.229 581.237H425.809L429.279 305.044H437.758L441.229 581.237Z" fill="#475073"/>
<path d="M468.814 593.506H401.101L408.047 577.907H461.865L468.814 593.506Z" fill="#6E77A2"/>
<path d="M448.938 294.889H418.097V312.423H448.938V294.889Z" fill="#475073"/>
<path d="M488.493 368.902H381.418V378.567H488.493V368.902Z" fill="#475073"/>
<path d="M488.493 469.792H381.418V479.459H488.493V469.792Z" fill="#475073"/>
<path d="M502.364 416.943H362.812V426.608H502.364V416.943Z" fill="#475073"/>
<path d="M385.677 368.902H381.418V392.493H385.677V368.902Z" fill="#6E77A2"/>
<path d="M488.493 368.902H484.236V392.493H488.493V368.902Z" fill="#6E77A2"/>
<path d="M387.778 382.984H379.656V398.598H387.778V382.984Z" fill="#66B4D8"/>
<path d="M367.161 416.943H362.903V440.532H367.161V416.943Z" fill="#6E77A2"/>
<path d="M369.261 431.032H361.139V446.644H369.261V431.032Z" fill="#66B4D8"/>
<path d="M490.284 469.792H486.023V493.382H490.284V469.792Z" fill="#6E77A2"/>
<path d="M492.385 483.874H484.261V499.488H492.385V483.874Z" fill="#66B4D8"/>
<path d="M385.677 469.792H381.418V493.382H385.677V469.792Z" fill="#6E77A2"/>
<path d="M387.778 483.874H379.656V499.488H387.778V483.874Z" fill="#66B4D8"/>
<path d="M502.373 416.943H498.116V440.532H502.373V416.943Z" fill="#6E77A2"/>
<path d="M504.473 431.032H496.353V446.644H504.473V431.032Z" fill="#66B4D8"/>
<path d="M490.423 382.984H482.302V398.598H490.423V382.984Z" fill="#66B4D8"/>
<ellipse cx="442" cy="685" rx="40" ry="8" fill="#6F6F6F" fill-opacity="0.6"/>
<path d="M448.06 536.528C449.16 535.113 453.678 532.207 458.175 534.613C464.185 537.835 471.868 549.406 481.274 549.1C490.718 548.783 493.679 543.17 496.172 539.678C498.656 536.171 497.992 533.612 499.671 531.74C501.346 529.854 503.491 531.935 500.86 538.504C499.605 541.65 495.246 557.914 484.097 560.353C469.487 563.553 441.604 544.971 448.06 536.528Z" fill="#FBC7B5"/>
<path d="M449.524 533.303C449.524 533.303 443.903 538.219 451.002 546.766C458.103 555.312 462.379 558.057 462.379 558.057C462.379 558.057 469.104 555.266 474.594 545.281C474.594 545.281 456.435 525.248 449.524 533.303Z" fill="#ECA621"/>
<path d="M426.765 550.397C430.935 565.767 428.633 576.57 426.765 582.425C431.115 583.82 428.524 586.144 428.407 586.436C422.258 599.167 460.477 591.623 467.191 581.317C469.501 577.775 467.29 573.274 467.707 566.468C467.854 564.941 467.892 563.39 467.911 561.874C468.097 554.903 467.624 548.101 466.645 543.468C463.643 529.424 450.401 528.738 442.344 529.86C438.683 530.365 433.913 530.981 430.245 533.133L430.225 533.162C425.956 535.743 423.666 538.971 426.765 550.397Z" fill="#FDB515"/>
<path d="M436.237 542.86C437.888 549.837 443.791 571.131 426.765 581.78C426.765 581.78 454.962 602.377 471.092 584.554C471.092 584.554 467.848 554.16 463.339 542.089C462.046 538.62 458.608 527.97 452.418 529.511C452.418 529.511 463.297 546.605 458.333 551.119C453.371 555.637 448.684 551.839 446.493 548.438C442.982 542.966 439.237 530.315 439.237 530.315L432.386 531.343C432.386 531.343 434.831 536.913 436.237 542.86Z" fill="#A70000"/>
<path d="M441.663 519.678C441.663 519.678 445.278 525.339 441.433 529.114C437.486 532.98 455.641 539.807 454.76 536.328C453.636 531.839 450.953 529.439 452.507 523.919L441.663 519.678Z" fill="#F6B2A0"/>
<path d="M449.823 506.982C454.191 510.139 460.43 525.667 456.814 529.731C455.213 531.503 447.674 530.692 442.143 524.224C439.862 521.584 436.808 516.441 439.042 510.604C440.06 507.951 444.758 503.314 449.823 506.982Z" fill="#FBC7B5"/>
<path d="M454.038 508.414C455.152 510.32 454.967 510.813 449 512.519C443.048 514.225 441.945 513.953 442.75 515.312C445.114 519.341 440.671 519.061 443.556 523.834C446.421 528.627 440.921 526.203 438.146 522.341C437.599 521.56 434.513 517.817 436.659 511.136C439.156 503.33 449.902 501.422 454.038 508.414Z" fill="#1D1B3A"/>
<path d="M441.948 518.849C441.948 518.849 460.408 513.646 459.549 507.903C459.02 504.366 448.303 505.754 448.303 505.754L441.948 518.849Z" fill="#ECA621"/>
<path d="M454.038 508.414C452.56 513.953 448.203 517 436.89 520.605C436.89 520.605 430.764 509.658 438.703 503.859C445.708 498.756 454.978 504.867 454.038 508.414Z" fill="#FDB515"/>
<path d="M429.221 532.335C430.86 531.802 434.874 532.186 437.058 536.521C439.992 542.323 439.652 555.559 447.176 560.448C454.723 565.349 460.118 562.582 463.985 561.213C467.845 559.83 468.727 557.478 471.066 556.92C473.414 556.362 473.952 559.17 468.287 562.86C465.578 564.626 453.258 574.964 443.206 570.786C430.031 565.319 419.555 535.398 429.221 532.335Z" fill="#FBC7B5"/>
<path d="M430.657 531.501C430.657 531.501 423.557 532.284 424.431 542.848C425.294 553.392 427.13 557.869 427.13 557.869C427.13 557.869 433.916 559.36 443.682 554.556C443.682 554.556 440.468 528.986 430.657 531.501Z" fill="#ECA621"/>
<path d="M416.893 640.995C413.067 655.934 408.579 687.831 415.934 688.011C423.278 688.176 427.382 685.958 423.149 684.775C418.911 683.581 418.74 683.12 418.87 681.935C420.692 666.528 444.837 642.506 446.887 624.193C447.576 617.94 448.055 612.22 448.379 607.201C451.125 620.611 449.104 634.848 449.344 639.556C450.122 656.297 453.708 687.944 461.752 688.01C470.318 688.07 474.526 685.701 469.054 684.574C464.321 683.575 464.519 683.355 464.605 682.188C465.754 665.282 473.972 634.028 475.547 613.946C477.366 590.769 420.223 627.934 416.893 640.995Z" fill="#FBC7B5"/>
<path d="M457.239 684.202C457.239 684.202 463.626 686.731 467.576 684.202C467.576 684.202 474.775 685.172 470.255 686.918C465.712 688.675 456.97 690.121 457.239 684.202Z" fill="#FDB515"/>
<path d="M412.812 684.775C412.812 684.775 419.207 687.291 423.148 684.775C423.148 684.775 430.352 685.755 425.811 687.493C421.277 689.245 412.546 690.698 412.812 684.775Z" fill="#FDB515"/>
<path d="M469.861 574.567C455.218 584.315 434.738 583.322 426.765 581.779C424.611 599.16 411.521 664.374 410.044 673.323C416.472 675.449 418.609 675.897 420.469 675.897C451.514 635.955 447.946 618.825 448.276 613.805C449.446 619.603 445.612 648.023 452.314 675.897C454.56 677.344 461.366 679.226 466.236 675.897C466.481 674.116 475.59 642.104 475.392 617.047C475.257 599.965 472.393 588.242 469.861 574.567Z" fill="#A70000"/>
<path d="M427.788 596.502C436.894 593.621 437.696 584.638 437.705 584.553L436.497 584.461C436.473 584.787 435.735 592.723 427.417 595.356L427.788 596.502Z" fill="white"/>
<path d="M470.407 594.266L470.777 593.113C462.434 590.476 461.705 582.302 461.697 582.218L460.489 582.31C460.498 582.408 461.3 591.387 470.407 594.266Z" fill="white"/>
<g clip-path="url(#clip0_9_550)">
<path d="M948.733 496.518C948.645 495.22 947.113 491.644 943.436 491.273C938.521 490.772 929.214 494.623 923.695 490.628C918.156 486.61 918.656 482.037 918.58 478.925C918.516 475.807 919.95 474.534 919.704 472.732C919.465 470.916 917.33 471.299 916.241 476.324C915.718 478.721 911.731 490.271 917.434 496.253C924.903 504.096 949.178 504.211 948.733 496.518Z" fill="#FBC7B5"/>
<path d="M949.163 493.985C949.163 493.985 950.538 499.222 942.809 501.488C935.08 503.752 931.397 503.666 931.397 503.666C931.397 503.666 928.496 499.27 929.251 491.035C929.251 491.035 948.286 486.343 949.163 493.985Z" fill="#ECA621"/>
<path d="M961.28 487.658L961.263 487.635C958.32 486.739 954.854 487.106 952.193 487.368C946.329 487.929 937.116 490.639 937.371 501.06C937.463 504.493 938.28 509.376 939.587 514.265C939.854 515.333 940.143 516.42 940.505 517.471C941.943 522.21 941.144 525.753 943.37 527.87C949.836 534.013 980.068 534.171 973.594 526.216C973.46 526.028 971.82 523.295 973.722 521.98C971.42 518.159 970.574 513.202 969.202 509.921C968.8 508.939 968.455 507.939 968.167 506.889C967.476 504.485 967.14 501.851 967.214 498.683C967.417 491.642 964.725 488.764 961.28 487.658Z" fill="#FDB515"/>
<path d="M938.568 563.691C945.354 568.47 955.803 573.218 959.817 577.125C960.456 577.748 960.592 578.064 958.982 580.564C957.352 583.046 960.52 582.535 964.21 579.3C967.899 576.062 950.515 559.873 941.491 553.029C933.603 547.042 930.676 558.145 938.568 563.691Z" fill="#FBC7B5"/>
<path d="M964.287 576.141C964.287 576.141 962.194 580.313 958.982 580.565C958.982 580.565 955.731 584.196 958.878 583.247C962.034 582.289 967.219 579.387 964.287 576.141Z" fill="#FDB515"/>
<path d="M958.684 495.516C958.702 500.716 957.772 508.905 970.494 512.661C970.494 512.661 955.532 540.673 941.17 530.81C941.17 530.81 938.33 508.812 939.468 499.524C939.795 496.859 940.38 489.611 945.863 488.785C945.863 488.785 940.262 502.706 944.516 505.063C948.775 507.415 951.435 503.946 952.402 501.173C953.952 496.723 957.429 487.076 957.429 487.076L960.823 487.52C960.821 487.52 958.676 491.085 958.684 495.516Z" fill="#A70000"/>
<path d="M955.214 479.302C955.214 479.302 952.704 483.477 955.554 486.141C958.488 488.874 945.474 494.165 946.048 491.625C946.777 488.35 948.677 486.557 947.445 482.579L955.214 479.302Z" fill="#F6B2A0"/>
<path d="M949.069 470.243C945.966 472.615 941.742 483.998 944.435 486.879C945.625 488.131 951.066 487.408 954.952 482.604C956.554 480.649 958.667 476.86 956.943 472.666C956.153 470.766 952.666 467.485 949.069 470.243Z" fill="#FBC7B5"/>
<path d="M946.048 471.36C945.275 472.764 945.418 473.117 949.769 474.24C954.111 475.378 954.907 475.154 954.346 476.155C952.707 479.117 955.918 478.832 953.923 482.352C951.938 485.881 955.871 484.022 957.809 481.165C958.189 480.59 960.349 477.813 958.672 473.011C956.723 467.394 948.907 466.21 946.048 471.36Z" fill="#1D1B3A"/>
<path d="M952.017 477.875C952.017 477.875 941.535 475.278 942.046 471.088C942.364 468.512 950.148 469.324 950.148 469.324L952.017 477.875Z" fill="#ECA621"/>
<path d="M945.637 471.982C946.813 475.981 949.776 477.766 958.684 479.884C958.684 479.884 962.91 471.822 957.059 467.767C951.894 464.195 944.889 469.433 945.637 471.982Z" fill="#FDB515"/>
<path d="M943.019 525.433C943.019 525.433 921.131 538.13 918.574 545.746C916.021 553.36 956.904 577.536 956.904 577.536C956.904 577.536 961.688 572.77 959.48 568.423C951.202 552.118 948.174 546.899 948.174 546.899L968.461 530.006L943.019 525.433Z" fill="#A70000"/>
<path d="M963.516 572.119C966.018 580.033 971.442 590.15 972.266 595.685C972.396 596.57 972.315 596.906 969.514 597.915C966.716 598.905 969.542 600.415 974.439 600.085C979.339 599.743 975.334 576.333 972.309 565.413C969.671 555.873 960.611 562.928 963.516 572.119Z" fill="#FBC7B5"/>
<path d="M976.419 597.615C976.419 597.615 972.22 599.672 969.514 597.916C969.514 597.916 964.729 598.836 967.807 599.984C970.895 601.141 976.781 601.975 976.419 597.615Z" fill="#FDB515"/>
<path d="M970.493 512.661C970.493 512.661 975.013 521.877 977.779 535.108C981.111 551.058 978.07 590.213 978.07 590.213C978.07 590.213 978.762 591.467 969.003 590.246C966.373 589.91 954.246 536.577 954.246 536.577L957.489 521.647L970.493 512.661Z" fill="#A70000"/>
<path d="M974.915 590.797C979.039 563.418 968.23 520.862 968.121 520.433L967.595 520.569C967.705 520.995 978.487 563.444 974.377 590.717L974.915 590.797Z" fill="white"/>
<path fill-rule="evenodd" clip-rule="evenodd" d="M926.025 519.508H898.936C898.6 519.508 898.327 519.236 898.327 518.901V506.173C898.327 505.838 898.6 505.566 898.936 505.566H926.025C926.361 505.566 926.634 505.838 926.634 506.173V518.901C926.634 519.236 926.361 519.508 926.025 519.508Z" fill="#82786F"/>
<path fill-rule="evenodd" clip-rule="evenodd" d="M898.327 507.591V506.173C898.327 505.838 898.6 505.566 898.936 505.566H926.025C926.361 505.566 926.634 505.838 926.634 506.173V507.591H898.327Z" fill="#82786F"/>
<path fill-rule="evenodd" clip-rule="evenodd" d="M898.327 512.113V510.899H906.605C906.941 510.899 907.214 511.171 907.214 511.506C907.214 511.841 906.942 512.113 906.605 512.113L898.327 512.113ZM926.634 510.899V512.113H918.162C917.825 512.113 917.552 511.841 917.552 511.506C917.552 511.171 917.826 510.899 918.162 510.899L926.634 510.899Z" fill="#423E3C"/>
<path fill-rule="evenodd" clip-rule="evenodd" d="M918.162 514.639H906.8C906.463 514.639 906.19 514.366 906.19 514.031V511.506C906.19 511.171 906.463 510.899 906.8 510.899C907.136 510.899 907.409 511.172 907.409 511.506V513.424H917.552V511.506C917.552 511.171 917.826 510.899 918.162 510.899C918.498 510.899 918.772 511.172 918.772 511.506V514.031C918.771 514.366 918.498 514.639 918.162 514.639Z" fill="#423E3C"/>
<path fill-rule="evenodd" clip-rule="evenodd" d="M930.359 506.781H894.602C893.106 506.781 891.889 505.568 891.889 504.078V470.38C891.889 468.889 893.106 467.676 894.602 467.676H930.359C931.854 467.676 933.071 468.889 933.071 470.38V504.077C933.072 505.568 931.855 506.781 930.359 506.781Z" fill="#E41E26"/>
<path fill-rule="evenodd" clip-rule="evenodd" d="M929.348 504.487H895.613C894.828 504.487 894.19 503.852 894.19 503.069V471.387C894.19 470.604 894.828 469.969 895.613 469.969H929.348C930.134 469.969 930.771 470.604 930.771 471.387V503.069C930.771 503.852 930.134 504.487 929.348 504.487Z" fill="#9C2A2A"/>
<path fill-rule="evenodd" clip-rule="evenodd" d="M929.348 503.676H895.613C895.277 503.676 895.004 503.404 895.004 503.069V471.387C895.004 471.052 895.277 470.779 895.613 470.779H929.348C929.685 470.779 929.958 471.052 929.958 471.387V503.069C929.958 503.404 929.685 503.676 929.348 503.676Z" fill="white"/>
<path fill-rule="evenodd" clip-rule="evenodd" d="M924.854 481.629H900.297C899.961 481.629 899.688 481.357 899.688 481.021V475.448C899.688 475.113 899.961 474.841 900.297 474.841H924.854C925.191 474.841 925.464 475.113 925.464 475.448V481.021C925.464 481.357 925.19 481.629 924.854 481.629Z" fill="#79CDF3"/>
<path d="M905.407 474.841H904.188V481.629H905.407V474.841Z" fill="#A5DFF9"/>
<path d="M910.592 474.841H909.373V481.629H910.592V474.841Z" fill="#A5DFF9"/>
<path d="M915.777 474.841H914.558V481.629H915.777V474.841Z" fill="#A5DFF9"/>
<path d="M920.963 474.841H919.744V481.629H920.963V474.841Z" fill="#A5DFF9"/>
<path fill-rule="evenodd" clip-rule="evenodd" d="M902.602 489.854C900.891 489.854 899.498 488.466 899.498 486.761C899.498 485.055 900.891 483.668 902.602 483.668C904.313 483.668 905.706 485.055 905.706 486.761C905.705 488.467 904.313 489.854 902.602 489.854Z" fill="#59C2AB"/>
<path fill-rule="evenodd" clip-rule="evenodd" d="M910.953 489.854C909.241 489.854 907.849 488.466 907.849 486.761C907.849 485.055 909.241 483.668 910.953 483.668C912.664 483.668 914.056 485.055 914.056 486.761C914.056 488.467 912.664 489.854 910.953 489.854Z" fill="#59C2AB"/>
<path fill-rule="evenodd" clip-rule="evenodd" d="M918.586 487.369H916.858C916.522 487.369 916.249 487.096 916.249 486.761C916.249 486.426 916.522 486.154 916.858 486.154H918.586C918.922 486.154 919.195 486.426 919.195 486.761C919.195 487.096 918.922 487.369 918.586 487.369Z" fill="#59C2AB"/>
<path fill-rule="evenodd" clip-rule="evenodd" d="M921.61 499.616H902.602C902.265 499.616 901.992 499.343 901.992 499.008V492.706C901.992 492.371 902.265 492.099 902.602 492.099H921.611C921.948 492.099 922.221 492.371 922.221 492.706V499.008C922.221 499.344 921.947 499.616 921.61 499.616Z" fill="#82786F"/>
<path d="M922.221 495.251H901.992V496.465H922.221V495.251Z" fill="#383838"/>
<path fill-rule="evenodd" clip-rule="evenodd" d="M922.971 490.824C922.868 490.824 922.763 490.797 922.667 490.743C922.375 490.575 922.276 490.204 922.444 489.913L923.798 487.576H921.574C921.356 487.576 921.156 487.461 921.047 487.272C920.938 487.084 920.938 486.852 921.047 486.665L923.049 483.208C923.217 482.917 923.592 482.819 923.882 482.986C924.172 483.153 924.273 483.525 924.105 483.816L922.63 486.361H924.854C925.072 486.361 925.273 486.477 925.381 486.665C925.49 486.852 925.49 487.084 925.381 487.272L923.5 490.52C923.387 490.715 923.182 490.824 922.971 490.824Z" fill="#FFCB68"/>
<path d="M965.645 491.481C965.155 490.333 963.043 488.318 959.63 489.185C955.058 490.337 947.963 496.813 941.712 495.022C935.442 493.222 934.403 488.957 933.322 486.189C932.252 483.419 933.121 481.813 932.317 480.276C931.51 478.721 929.716 479.761 930.377 484.616C930.693 486.935 930.864 498.596 937.924 502.109C947.172 506.716 968.548 498.225 965.645 491.481Z" fill="#FBC7B5"/>
<path d="M965.42 490.304C965.42 490.304 968.358 494.558 962.149 499.102C955.957 503.637 952.628 504.767 952.628 504.767C952.628 504.767 948.597 501.758 946.602 494.131C946.602 494.131 962.146 483.735 965.42 490.304Z" fill="#ECA621"/>
<path d="M961.622 619.021L963.63 618.209L926.797 527.402H948.366L985.531 619.021L987.543 618.209L949.828 525.233H923.577L961.622 619.021Z" fill="#475073"/>
<path d="M965.654 566.055H941.743V568.223H965.654V566.055Z" fill="#475073"/>
<path d="M970.444 577.262H946.532V579.43H970.444V577.262Z" fill="#475073"/>
<path d="M974.583 588.58H950.671V590.75H974.583V588.58Z" fill="#475073"/>
<path d="M979.771 600.121H955.86V602.289H979.771V600.121Z" fill="#475073"/>
<path d="M912.011 618.996L936.83 552.911L934.797 552.147L909.978 618.232L912.011 618.996Z" fill="#475073"/>
<path d="M936.833 620.728L961.645 554.641L959.612 553.878L934.799 619.964L936.833 620.728Z" fill="#475073"/>
<ellipse cx="947" cy="617" rx="47" ry="5" fill="#656565"/>
</g>
<g clip-path="url(#clip1_9_550)">
<mask id="mask1_9_550" style="mask-type:luminance" maskUnits="userSpaceOnUse" x="1055" y="258" width="315" height="45">
<path d="M1369.27 258.435H1055.14V302.901H1369.27V258.435Z" fill="white"/>
</mask>
<g mask="url(#mask1_9_550)">
<path d="M1369.27 258.435H1055.14V302.901H1369.27V258.435Z" fill="#CBE7F2"/>
</g>
<mask id="mask2_9_550" style="mask-type:luminance" maskUnits="userSpaceOnUse" x="1055" y="258" width="315" height="45">
<path d="M1369.27 258.435H1055.14V302.901H1369.27V258.435Z" fill="white"/>
</mask>
<g mask="url(#mask2_9_550)">
<path opacity="0.5" d="M1369.27 283.04L1055.14 263.179V258.435H1369.27V283.04Z" fill="#94C8D7"/>
</g>
<mask id="mask3_9_550" style="mask-type:luminance" maskUnits="userSpaceOnUse" x="1033" y="221" width="255" height="254">
<path d="M1287.36 443.426L1065.25 221.307L1033.8 252.749L1255.92 474.868L1287.36 443.426Z" fill="white"/>
</mask>
<g mask="url(#mask3_9_550)">
<path opacity="0.5" d="M1135.97 223.614L1133.46 221.099L1074.04 280.52L1076.55 283.036L1135.97 223.614Z" fill="white"/>
</g>
<mask id="mask4_9_550" style="mask-type:luminance" maskUnits="userSpaceOnUse" x="1055" y="230" width="255" height="254">
<path d="M1309.26 452.497L1087.14 230.378L1055.7 261.819L1277.82 483.938L1309.26 452.497Z" fill="white"/>
</mask>
<g mask="url(#mask4_9_550)">
<path opacity="0.5" d="M1135.97 254.583L1133.46 252.067L1074.04 311.489L1076.55 314.004L1135.97 254.583Z" fill="white"/>
</g>
<mask id="mask5_9_550" style="mask-type:luminance" maskUnits="userSpaceOnUse" x="1065" y="182" width="254" height="255">
<path d="M1318.71 405.097L1096.59 182.978L1065.14 214.419L1287.26 436.538L1318.71 405.097Z" fill="white"/>
</mask>
<g mask="url(#mask5_9_550)">
<path opacity="0.5" d="M1197.91 242.28L1195.4 239.765L1135.98 299.187L1138.49 301.702L1197.91 242.28Z" fill="white"/>
</g>
<mask id="mask6_9_550" style="mask-type:luminance" maskUnits="userSpaceOnUse" x="1091" y="168" width="255" height="254">
<path d="M1345.28 390.393L1123.09 168.336L1091.66 199.787L1313.84 421.843L1345.28 390.393Z" fill="white"/>
</mask>
<g mask="url(#mask6_9_550)">
<path opacity="0.5" d="M1228.88 266.976L1226.36 264.464L1166.96 323.904L1169.47 326.417L1228.88 266.976Z" fill="white"/>
</g>
<mask id="mask7_9_550" style="mask-type:luminance" maskUnits="userSpaceOnUse" x="1094" y="131" width="255" height="255">
<path d="M1348.03 354.135L1125.97 131.953L1094.52 163.386L1316.58 385.568L1348.03 354.135Z" fill="white"/>
</mask>
<g mask="url(#mask7_9_550)">
<path opacity="0.5" d="M1274.14 252.219L1271.63 249.703L1212.19 309.108L1214.71 311.624L1274.14 252.219Z" fill="white"/>
</g>
<mask id="mask8_9_550" style="mask-type:luminance" maskUnits="userSpaceOnUse" x="1101" y="83" width="254" height="255">
<path d="M1354.76 305.55L1132.58 83.4933L1101.15 114.944L1323.33 337L1354.76 305.55Z" fill="white"/>
</mask>
<g mask="url(#mask8_9_550)">
<path opacity="0.5" d="M1336.08 236.008L1333.56 233.493L1274.15 292.932L1276.67 295.446L1336.08 236.008Z" fill="white"/>
</g>
<mask id="mask9_9_550" style="mask-type:luminance" maskUnits="userSpaceOnUse" x="1128" y="71" width="254" height="254">
<path d="M1381.91 293.542L1159.86 71.3601L1128.41 102.793L1350.46 324.975L1381.91 293.542Z" fill="white"/>
</mask>
<g mask="url(#mask9_9_550)">
<path opacity="0.5" d="M1364.2 262.809L1361.69 260.295L1302.25 319.7L1304.76 322.214L1364.2 262.809Z" fill="white"/>
</g>
<mask id="mask10_9_550" style="mask-type:luminance" maskUnits="userSpaceOnUse" x="1055" y="338" width="315" height="45">
<path d="M1369.27 338.47H1055.14V382.935H1369.27V338.47Z" fill="white"/>
</mask>
<g mask="url(#mask10_9_550)">
<path d="M1369.27 338.47H1055.14V382.935H1369.27V338.47Z" fill="#CBE7F2"/>
</g>
<mask id="mask11_9_550" style="mask-type:luminance" maskUnits="userSpaceOnUse" x="1055" y="338" width="315" height="45">
<path d="M1369.27 338.47H1055.14V382.935H1369.27V338.47Z" fill="white"/>
</mask>
<g mask="url(#mask11_9_550)">
<path opacity="0.5" d="M1369.27 363.074L1055.14 343.21V338.47H1369.27V363.074Z" fill="#9BCCDA"/>
</g>
<mask id="mask12_9_550" style="mask-type:luminance" maskUnits="userSpaceOnUse" x="1033" y="301" width="255" height="254">
<path d="M1287.42 523.41L1065.24 301.353L1033.81 332.804L1255.99 554.86L1287.42 523.41Z" fill="white"/>
</mask>
<g mask="url(#mask12_9_550)">
<path opacity="0.5" d="M1135.97 303.638L1133.46 301.125L1074.05 360.566L1076.57 363.079L1135.97 303.638Z" fill="white"/>
</g>
<mask id="mask13_9_550" style="mask-type:luminance" maskUnits="userSpaceOnUse" x="1055" y="310" width="255" height="255">
<path d="M1309.21 532.588L1087.16 310.405L1055.7 341.838L1277.76 564.02L1309.21 532.588Z" fill="white"/>
</mask>
<g mask="url(#mask13_9_550)">
<path opacity="0.5" d="M1135.98 334.622L1133.47 332.106L1074.03 391.513L1076.54 394.029L1135.98 334.622Z" fill="white"/>
</g>
<mask id="mask14_9_550" style="mask-type:luminance" maskUnits="userSpaceOnUse" x="1065" y="262" width="254" height="255">
<path d="M1318.66 485.174L1096.61 262.992L1065.16 294.424L1287.21 516.606L1318.66 485.174Z" fill="white"/>
</mask>
<g mask="url(#mask14_9_550)">
<path opacity="0.5" d="M1197.92 322.323L1195.4 319.807L1135.96 379.212L1138.48 381.728L1197.92 322.323Z" fill="white"/>
</g>
<mask id="mask15_9_550" style="mask-type:luminance" maskUnits="userSpaceOnUse" x="1091" y="248" width="255" height="254">
<path d="M1345.28 470.427L1123.1 248.371L1091.66 279.821L1313.85 501.878L1345.28 470.427Z" fill="white"/>
</mask>
<g mask="url(#mask15_9_550)">
<path opacity="0.5" d="M1228.88 347.011L1226.37 344.498L1166.96 403.939L1169.47 406.452L1228.88 347.011Z" fill="white"/>
</g>
<mask id="mask16_9_550" style="mask-type:luminance" maskUnits="userSpaceOnUse" x="1094" y="211" width="255" height="255">
<path d="M1348.03 434.168L1125.97 211.986L1094.52 243.419L1316.58 465.601L1348.03 434.168Z" fill="white"/>
</mask>
<g mask="url(#mask16_9_550)">
<path opacity="0.5" d="M1274.14 332.253L1271.63 329.736L1212.19 389.141L1214.7 391.658L1274.14 332.253Z" fill="white"/>
</g>
<mask id="mask17_9_550" style="mask-type:luminance" maskUnits="userSpaceOnUse" x="1101" y="163" width="254" height="255">
<path d="M1354.78 385.569L1132.53 163.576L1101.11 195.035L1323.35 417.029L1354.78 385.569Z" fill="white"/>
</mask>
<g mask="url(#mask17_9_550)">
<path opacity="0.5" d="M1336.07 316.033L1333.56 313.519L1274.17 372.974L1276.69 375.488L1336.07 316.033Z" fill="white"/>
</g>
<mask id="mask18_9_550" style="mask-type:luminance" maskUnits="userSpaceOnUse" x="1128" y="151" width="254" height="255">
<path d="M1381.91 373.59L1159.92 151.345L1128.46 182.769L1350.45 405.014L1381.91 373.59Z" fill="white"/>
</mask>
<g mask="url(#mask18_9_550)">
<path opacity="0.5" d="M1364.2 342.854L1361.69 340.337L1302.23 399.725L1304.75 402.242L1364.2 342.854Z" fill="white"/>
</g>
<mask id="mask19_9_550" style="mask-type:luminance" maskUnits="userSpaceOnUse" x="1055" y="418" width="315" height="45">
<path d="M1369.27 418.504H1055.14V462.967H1369.27V418.504Z" fill="white"/>
</mask>
<g mask="url(#mask19_9_550)">
<path d="M1369.27 418.504H1055.14V462.967H1369.27V418.504Z" fill="#CBE7F2"/>
</g>
<mask id="mask20_9_550" style="mask-type:luminance" maskUnits="userSpaceOnUse" x="1055" y="418" width="315" height="45">
<path d="M1369.27 418.504H1055.14V462.967H1369.27V418.504Z" fill="white"/>
</mask>
<g mask="url(#mask20_9_550)">
<path opacity="0.5" d="M1369.27 443.109L1055.14 423.247V418.504H1369.27V443.109Z" fill="#92BFCE"/>
</g>
<mask id="mask21_9_550" style="mask-type:luminance" maskUnits="userSpaceOnUse" x="1033" y="381" width="255" height="254">
<path d="M1287.31 603.545L1065.25 381.363L1033.8 412.793L1255.86 634.975L1287.31 603.545Z" fill="white"/>
</mask>
<g mask="url(#mask21_9_550)">
<path opacity="0.5" d="M1135.98 383.689L1133.47 381.173L1074.03 440.578L1076.54 443.094L1135.98 383.689Z" fill="white"/>
</g>
<mask id="mask22_9_550" style="mask-type:luminance" maskUnits="userSpaceOnUse" x="1055" y="390" width="255" height="255">
<path d="M1309.11 612.733L1087.18 390.426L1055.71 421.839L1277.64 644.146L1309.11 612.733Z" fill="white"/>
</mask>
<g mask="url(#mask22_9_550)">
<path opacity="0.5" d="M1135.99 414.674L1133.47 412.155L1074 471.526L1076.52 474.046L1135.99 414.674Z" fill="white"/>
</g>
<mask id="mask23_9_550" style="mask-type:luminance" maskUnits="userSpaceOnUse" x="1065" y="343" width="254" height="254">
<path d="M1318.75 565.123L1096.57 343.067L1065.14 374.515L1287.32 596.572L1318.75 565.123Z" fill="white"/>
</mask>
<g mask="url(#mask23_9_550)">
<path opacity="0.5" d="M1197.91 402.341L1195.4 399.828L1135.99 459.267L1138.51 461.779L1197.91 402.341Z" fill="white"/>
</g>
<mask id="mask24_9_550" style="mask-type:luminance" maskUnits="userSpaceOnUse" x="1091" y="328" width="255" height="254">
<path d="M1345.22 550.543L1123.16 328.361L1091.71 359.792L1313.77 581.974L1345.22 550.543Z" fill="white"/>
</mask>
<g mask="url(#mask24_9_550)">
<path opacity="0.5" d="M1228.89 427.063L1226.37 424.547L1166.94 483.952L1169.45 486.468L1228.89 427.063Z" fill="white"/>
</g>
<mask id="mask25_9_550" style="mask-type:luminance" maskUnits="userSpaceOnUse" x="1094" y="292" width="255" height="254">
<path d="M1348.03 514.201L1125.97 292.019L1094.52 323.45L1316.58 545.632L1348.03 514.201Z" fill="white"/>
</mask>
<g mask="url(#mask25_9_550)">
<path opacity="0.5" d="M1274.14 412.286L1271.63 409.77L1212.19 469.175L1214.7 471.691L1274.14 412.286Z" fill="white"/>
</g>
<mask id="mask26_9_550" style="mask-type:luminance" maskUnits="userSpaceOnUse" x="1101" y="243" width="254" height="255">
<path d="M1354.78 465.605L1132.54 243.611L1101.11 275.069L1323.36 497.062L1354.78 465.605Z" fill="white"/>
</mask>
<g mask="url(#mask26_9_550)">
<path opacity="0.5" d="M1336.07 396.07L1333.56 393.556L1274.17 453.012L1276.69 455.526L1336.07 396.07Z" fill="white"/>
</g>
<mask id="mask27_9_550" style="mask-type:luminance" maskUnits="userSpaceOnUse" x="1128" y="231" width="254" height="255">
<path d="M1381.91 453.623L1159.92 231.378L1128.46 262.8L1350.45 485.045L1381.91 453.623Z" fill="white"/>
</mask>
<g mask="url(#mask27_9_550)">
<path opacity="0.5" d="M1364.2 422.889L1361.69 420.372L1302.23 479.76L1304.75 482.277L1364.2 422.889Z" fill="white"/>
</g>
<path d="M1098.37 462.967H1050.36V547.452H1374.05V462.967H1307.8H1098.37Z" fill="#D0D1D1"/>
<path d="M1307.8 382.935H1098.37H1050.36V413.022C1050.36 416.051 1052.81 418.504 1055.84 418.504H1098.38H1307.8H1368.57C1371.6 418.504 1374.06 416.051 1374.06 413.022V382.935H1307.8Z" fill="#D0D1D1"/>
<path d="M1307.65 302.901H1098.37H1050.36V332.987C1050.36 336.017 1052.81 338.47 1055.84 338.47H1098.38H1307.8H1368.57C1371.6 338.47 1374.06 336.017 1374.06 332.987V302.901H1307.65Z" fill="#D0D1D1"/>
<path d="M1050.5 218.418V252.953C1050.5 255.982 1052.96 258.435 1055.99 258.435H1098.53H1307.8H1368.72C1371.75 258.435 1374.2 255.979 1374.2 252.953V218.418H1050.5Z" fill="#D0D1D1"/>
<path d="M1374.2 218.418H1050.5V173.953L1374.2 70.7976V218.418Z" fill="#D1D2D2"/>
<path opacity="0.5" d="M1055.29 258.435C1052.56 258.435 1050.36 256.227 1050.36 253.504V222.864H1055.29V258.435Z" fill="#F7F8F8"/>
<path opacity="0.5" d="M1055.29 462.967H1050.36V531.885H1055.29V462.967Z" fill="#F7F8F8"/>
<path opacity="0.5" d="M1055.29 182.846H1050.36V218.418H1055.29V182.846Z" fill="#F7F8F8"/>
<path opacity="0.5" d="M1055.29 418.504C1052.56 418.504 1050.36 416.296 1050.36 413.57V382.935H1055.29V418.504Z" fill="#F7F8F8"/>
<path opacity="0.5" d="M1055.29 338.47C1052.56 338.47 1050.36 336.264 1050.36 333.535V302.901H1055.29V338.47Z" fill="#F7F8F8"/>
<path d="M1376.57 485.202H1047.84V547.452H1376.57V485.202Z" fill="#6E77A2"/>
<path d="M1376.42 157.059H1324.4V112.594H1376.42C1379.12 112.594 1381.31 114.783 1381.31 117.483V152.164C1381.31 154.867 1379.12 157.059 1376.42 157.059Z" fill="#475073"/>
<path d="M1376.42 206.858H1324.4V162.395H1376.42C1379.12 162.395 1381.31 164.584 1381.31 167.285V201.966C1381.31 204.669 1379.12 206.858 1376.42 206.858Z" fill="#475073"/>
<path d="M1143.14 253.99H1138.99V470.973H1143.14V253.99Z" fill="#D0D1D1"/>
<path d="M1178.71 253.99H1174.56V470.973H1178.71V253.99Z" fill="#D0D1D1"/>
<path d="M1214.28 253.99H1210.13V470.973H1214.28V253.99Z" fill="#D0D1D1"/>
<path d="M1249.85 253.99H1245.7V470.973H1249.85V253.99Z" fill="#D0D1D1"/>
<path d="M1285.42 253.99H1281.27V470.973H1285.42V253.99Z" fill="#D0D1D1"/>
<path d="M1320.99 253.99H1316.84V470.973H1320.99V253.99Z" fill="#D0D1D1"/>
<path d="M1356.56 253.99H1352.41V470.973H1356.56V253.99Z" fill="#D0D1D1"/>
<path d="M1107.57 253.99H1103.42V470.973H1107.57V253.99Z" fill="#D0D1D1"/>
<path d="M1071.99 253.99H1067.84V470.973H1071.99V253.99Z" fill="#D0D1D1"/>
<path d="M1046.95 173.953V192.333L1377.76 87.3991V69.0189L1046.95 173.953Z" fill="#475073"/>
<path d="M1373.31 230.866H1051.39C1048.94 230.866 1046.95 228.877 1046.95 226.421V215.749C1046.95 213.293 1048.94 211.303 1051.39 211.303H1373.31C1375.77 211.303 1377.76 213.293 1377.76 215.749V226.421C1377.76 228.877 1375.77 230.866 1373.31 230.866Z" fill="#475073"/>
<path d="M1377.46 302.901H1046.95V306.011H1377.46V302.901Z" fill="#475073"/>
<path d="M1377.46 381.376H1046.95V384.486H1377.46V381.376Z" fill="#475073"/>
<path d="M1377.46 459.856H1046.95V462.967H1377.46V459.856Z" fill="#475073"/>
<path d="M1059.64 490.314H1050.45V542.338H1059.64V490.314Z" fill="#475073"/>
<path d="M1077.43 490.314H1068.24V542.338H1077.43V490.314Z" fill="#475073"/>
<path d="M1095.21 490.314H1086.02V542.338H1095.21V490.314Z" fill="#475073"/>
<path d="M1113 490.314H1103.81V542.338H1113V490.314Z" fill="#475073"/>
<path d="M1130.79 490.314H1121.59V542.338H1130.79V490.314Z" fill="#475073"/>
<path d="M1148.57 490.314H1139.38V542.338H1148.57V490.314Z" fill="#475073"/>
<path d="M1166.35 490.314H1157.16V542.338H1166.35V490.314Z" fill="#475073"/>
<path d="M1267.24 490.314H1258.05V542.338H1267.24V490.314Z" fill="#475073"/>
<path d="M1285.03 490.314H1275.84V542.338H1285.03V490.314Z" fill="#475073"/>
<path d="M1302.82 490.314H1293.62V542.338H1302.82V490.314Z" fill="#475073"/>
<path d="M1320.6 490.314H1311.41V542.338H1320.6V490.314Z" fill="#475073"/>
<path d="M1338.39 490.314H1329.2V542.338H1338.39V490.314Z" fill="#475073"/>
<path d="M1356.17 490.314H1346.98V542.338H1356.17V490.314Z" fill="#475073"/>
<path d="M1373.96 490.314H1364.77V542.338H1373.96V490.314Z" fill="#475073"/>
<path d="M1245.7 472.751H1243.26V547.452H1245.7V472.751Z" fill="#475073"/>
<mask id="mask28_9_550" style="mask-type:luminance" maskUnits="userSpaceOnUse" x="1181" y="472" width="63" height="76">
<path d="M1243.26 472.751H1181.15V547.452H1243.26V472.751Z" fill="white"/>
</mask>
<g mask="url(#mask28_9_550)">
<path d="M1243.26 472.751H1181.15V547.452H1243.26V472.751Z" fill="#CBE7F2"/>
</g>
<mask id="mask29_9_550" style="mask-type:luminance" maskUnits="userSpaceOnUse" x="1140" y="469" width="98" height="98">
<path d="M1237.6 513.631L1193.71 469.701L1140.86 522.5L1184.76 566.43L1237.6 513.631Z" fill="white"/>
</mask>
<g mask="url(#mask29_9_550)">
<path opacity="0.5" d="M1220.18 459.215L1218.29 457.327L1161.99 513.581L1163.87 515.47L1220.18 459.215Z" fill="white"/>
</g>
<mask id="mask30_9_550" style="mask-type:luminance" maskUnits="userSpaceOnUse" x="1161" y="457" width="98" height="97">
<path d="M1258.45 500.984L1214.54 457.072L1161.72 509.893L1205.63 553.805L1258.45 500.984Z" fill="white"/>
</mask>
<g mask="url(#mask30_9_550)">
<path opacity="0.5" d="M1245.85 478.009L1243.96 476.123L1187.69 532.401L1189.57 534.287L1245.85 478.009Z" fill="white"/>
</g>
<mask id="mask31_9_550" style="mask-type:luminance" maskUnits="userSpaceOnUse" x="1191" y="460" width="98" height="98">
<path d="M1288.06 504.331L1244.13 460.438L1191.33 513.282L1235.26 557.175L1288.06 504.331Z" fill="white"/>
</mask>
<g mask="url(#mask31_9_550)">
<path opacity="0.5" d="M1256.61 515.402L1254.72 513.517L1198.46 569.819L1200.35 571.704L1256.61 515.402Z" fill="white"/>
</g>
<path d="M1181.15 472.751H1178.71V547.452H1181.15V472.751Z" fill="#475073"/>
<path d="M1245.85 471.526H1178.71V473.974H1245.85V471.526Z" fill="#475073"/>
<path d="M1213.09 472.751H1211.31V547.452H1213.09V472.751Z" fill="#475073"/>
<path opacity="0.1" d="M1374.2 226.421H1051.39V234.424H1374.2V226.421Z" fill="#475073"/>
<path opacity="0.1" d="M1374.05 306.011H1051.25V307.346H1374.05V306.011Z" fill="#4C4445"/>
<path opacity="0.1" d="M1374.05 383.823H1051.25V385.158H1374.05V383.823Z" fill="#4C4445"/>
<path opacity="0.1" d="M1374.5 462.967H1051.69V464.304H1374.5V462.967Z" fill="#4C4445"/>
<path d="M1387.37 553.513H1041.12C1038.23 553.513 1035.88 550.659 1035.88 547.14H1392.6C1392.6 550.659 1390.26 553.513 1387.37 553.513Z" fill="#475073"/>
</g>
<defs>
<clipPath id="clip0_9_550">
<rect width="143.773" height="162.551" fill="white" transform="translate(850 459)"/>
</clipPath>
<clipPath id="clip1_9_550">
<rect width="562" height="562" fill="white" transform="translate(932 40)"/>
</clipPath>
</defs>
</svg>
