<svg width="160" height="160" viewBox="0 0 160 160" fill="none" xmlns="http://www.w3.org/2000/svg">
<path d="M138.646 70.001C133.316 65.252 130.492 57.182 131.55 50.34C132.21 46.061 144.239 38.614 144.239 38.614L126.293 19.11C126.293 19.11 117.876 30.525 113.567 30.819C106.978 31.3 99.534 27.917 95.527 22.417C92.977 18.918 96.271 5.158 96.271 5.158L69.763 4.013C69.763 4.013 71.845 18.025 69.022 21.271C65.117 25.77 58.139 28.055 52.449 26.914C48.21 26.07 41.348 13.698 41.348 13.698L21.037 30.753C21.037 30.753 32.031 39.666 32.148 43.972C32.324 51.219 28.469 59.201 22.398 63.527C18.876 66.046 5.123 62.568 5.123 62.568L3.641 89.06C3.641 89.06 17.653 87.138 20.864 90.004C26.196 94.771 29.029 102.842 27.967 109.676C27.31 113.948 15.262 121.39 15.262 121.39L33.213 140.89C33.213 140.89 41.625 129.496 45.941 129.193C52.513 128.723 59.987 132.112 63.995 137.593C66.541 141.095 63.264 154.846 63.264 154.846L89.755 155.991C89.755 155.991 87.662 141.985 90.483 138.735C94.401 134.249 101.387 131.951 107.087 133.095C111.307 133.953 118.185 146.318 118.185 146.318L138.485 129.256C138.485 129.256 127.5 120.344 127.368 116.033C127.201 108.798 131.044 100.815 137.119 96.477C140.644 93.984 154.405 97.457 154.405 97.457L155.872 70.969C155.868 70.97 141.87 72.868 138.646 70.001ZM77.878 123.294C53.644 122.249 34.84 101.752 35.89 77.51C36.941 53.278 57.431 34.479 81.67 35.518C105.901 36.569 124.725 57.062 123.661 81.303C122.625 105.534 102.133 124.339 77.878 123.294Z" fill="#CBE8F3"/>
<path d="M113.29 81.457C112.501 99.979 96.829 114.354 78.298 113.543C59.785 112.74 45.413 97.085 46.219 78.57C47.007 60.026 62.677 45.67 81.198 46.458C99.732 47.267 114.096 62.932 113.29 81.457Z" fill="#CBE8F3"/>
</svg>
