<svg width="385" height="121" viewBox="0 0 385 121" fill="none" xmlns="http://www.w3.org/2000/svg">
<path d="M13.2194 84.7464C12.3167 79.421 13.5101 73.2878 14.7213 69.3124C18.0827 58.2675 25.8046 50.7192 34.7039 45.57C38.9241 43.0021 43.6851 41.088 48.5281 39.2632C51.4597 38.104 54.5667 37.3546 56.2688 35.0271C57.9248 32.6282 56.2688 30.4693 54.8652 29.141C51.7872 26.4049 46.671 25.9876 43.2355 23.4192C42.243 22.6706 40.7239 21.6725 41.268 19.3503C42.1676 15.4528 46.4576 13.4631 49.3665 11.9673C56.826 7.98721 67.1563 4.66692 78.1725 4.66692C72.7554 3.08772 66.9657 2.10883 60.9855 2.10883C28.6102 2.10883 2.33611 28.3988 2.33611 60.7619C2.33611 75.1071 7.41919 88.216 15.9007 98.346C15.4473 96.5268 14.7213 93.2009 14.2753 91.5366C13.9168 89.2163 13.5782 87.0566 13.2194 84.7464Z" fill="#E41E26"/>
<path d="M119.657 60.7619C119.657 42.2497 110.931 25.5781 97.3496 14.8687C93.1392 12.8806 86.9665 13.2085 80.8906 13.2942C78.6972 13.6289 76.4637 14.0425 74.2545 14.3705C71.135 15.2042 68.1082 16.6137 65.623 18.11C64.4708 18.8496 61.6963 19.9348 62.535 22.2578C64.3278 27.0647 75.449 27.979 79.5665 31.054C81.2469 32.2927 83.8782 34.7871 81.8809 37.6086C80.0714 40.0905 76.2231 40.9214 73.2533 42.0903C65.9924 45.0712 57.1821 46.0748 50.9691 50.0522C42.853 55.0296 36.9029 61.5878 33.3064 71.3011C32.4643 73.6272 32.1609 76.2726 31.7675 79.0936C31.3622 81.5793 31.1975 84.9013 31.5975 87.5562C32.0969 90.8793 31.9341 93.6972 32.7497 96.5268C35.7602 107.969 43.3259 114.773 54.0039 118.26C54.8935 118.433 58.6266 119.087 61.6854 119.426C93.7993 119.087 119.657 92.8716 119.657 60.7619Z" fill="#E41E26"/>
<path d="M163.068 20.6591C162.811 19.7045 162.432 18.8636 161.932 18.1364C161.432 17.3939 160.818 16.7652 160.091 16.25C159.364 15.7348 158.53 15.3485 157.591 15.0909C156.652 14.8182 155.621 14.6818 154.5 14.6818C152.242 14.6818 150.288 15.2273 148.636 16.3182C147 17.4091 145.735 19 144.841 21.0909C143.947 23.1667 143.5 25.6894 143.5 28.6591C143.5 31.6439 143.932 34.1894 144.795 36.2955C145.659 38.4015 146.909 40.0076 148.545 41.1136C150.182 42.2197 152.167 42.7727 154.5 42.7727C156.561 42.7727 158.303 42.4394 159.727 41.7727C161.167 41.0909 162.258 40.1288 163 38.8864C163.742 37.6439 164.114 36.1818 164.114 34.5L166.205 34.75H154.886V26.5455H174.955V32.7045C174.955 36.8712 174.068 40.4394 172.295 43.4091C170.538 46.3788 168.114 48.6591 165.023 50.25C161.947 51.8409 158.409 52.6364 154.409 52.6364C149.97 52.6364 146.068 51.6742 142.705 49.75C139.341 47.8258 136.72 45.0833 134.841 41.5227C132.962 37.947 132.023 33.7045 132.023 28.7955C132.023 24.9773 132.591 21.5909 133.727 18.6364C134.864 15.6667 136.447 13.1515 138.477 11.0909C140.523 9.0303 142.886 7.4697 145.568 6.40909C148.265 5.34848 151.167 4.81818 154.273 4.81818C156.97 4.81818 159.477 5.20454 161.795 5.97727C164.129 6.75 166.189 7.84091 167.977 9.25C169.78 10.6591 171.242 12.3333 172.364 14.2727C173.485 16.2121 174.182 18.3409 174.455 20.6591H163.068ZM181.585 52V5.45454H192.835V24.1364H211.176V5.45454H222.403V52H211.176V33.2955H192.835V52H181.585ZM239.528 52H227.438L243.142 5.45454H258.119L273.824 52H261.733L250.801 17.1818H250.438L239.528 52ZM237.915 33.6818H263.188V42.2273H237.915V33.6818ZM318.449 5.45454V52H308.903L290.381 25.1364H290.085V52H278.835V5.45454H288.517L306.835 32.2727H307.222V5.45454H318.449ZM335.591 52H323.5L339.205 5.45454H354.182L369.886 52H357.795L346.864 17.1818H346.5L335.591 52ZM333.977 33.6818H359.25V42.2273H333.977V33.6818Z" fill="#E41E26"/>
<path d="M131.651 81V59.1818H146.864V63.4645H136.925V67.9389H146.087V72.2322H136.925V76.7173H146.864V81H131.651ZM150.167 81V59.1818H155.44V76.7173H164.517V81H150.167ZM167.247 81V59.1818H182.46V63.4645H172.52V67.9389H181.682V72.2322H172.52V76.7173H182.46V81H167.247ZM205.567 67.0866H200.241C200.17 66.5398 200.024 66.0462 199.804 65.6058C199.584 65.1655 199.292 64.7891 198.93 64.4766C198.568 64.1641 198.138 63.9261 197.641 63.7628C197.151 63.5923 196.608 63.5071 196.011 63.5071C194.953 63.5071 194.04 63.7663 193.273 64.2848C192.513 64.8033 191.927 65.5526 191.515 66.5327C191.111 67.5128 190.908 68.6989 190.908 70.0909C190.908 71.5398 191.114 72.7543 191.526 73.7344C191.945 74.7074 192.531 75.4425 193.284 75.9396C194.044 76.4297 194.942 76.6747 195.979 76.6747C196.562 76.6747 197.091 76.6001 197.567 76.451C198.05 76.3018 198.472 76.0852 198.834 75.8011C199.204 75.5099 199.506 75.1584 199.74 74.7464C199.981 74.3274 200.148 73.8551 200.241 73.3295L205.567 73.3615C205.475 74.3274 205.194 75.2791 204.726 76.2166C204.264 77.1541 203.628 78.0099 202.819 78.7841C202.009 79.5511 201.022 80.1619 199.857 80.6165C198.699 81.071 197.371 81.2983 195.873 81.2983C193.898 81.2983 192.13 80.8651 190.567 79.9986C189.012 79.125 187.783 77.8537 186.881 76.1847C185.979 74.5156 185.528 72.4844 185.528 70.0909C185.528 67.6903 185.986 65.6555 186.903 63.9865C187.819 62.3175 189.058 61.0497 190.621 60.1832C192.183 59.3168 193.934 58.8835 195.873 58.8835C197.194 58.8835 198.415 59.0682 199.537 59.4375C200.66 59.7997 201.647 60.3324 202.499 61.0355C203.351 61.7315 204.044 62.5874 204.577 63.603C205.109 64.6186 205.439 65.7798 205.567 67.0866ZM207.871 63.4645V59.1818H226.312V63.4645H219.696V81H214.498V63.4645H207.871ZM228.888 81V59.1818H237.9C239.534 59.1818 240.944 59.4766 242.13 60.0661C243.323 60.6484 244.243 61.4865 244.889 62.5803C245.535 63.6669 245.858 64.956 245.858 66.4474C245.858 67.9602 245.528 69.2457 244.868 70.304C244.207 71.3551 243.27 72.1577 242.055 72.7116C240.841 73.2585 239.403 73.532 237.741 73.532H232.041V69.3771H236.76C237.556 69.3771 238.22 69.2741 238.753 69.0682C239.292 68.8551 239.701 68.5355 239.978 68.1094C240.255 67.6761 240.393 67.1222 240.393 66.4474C240.393 65.7727 240.255 65.2152 239.978 64.7749C239.701 64.3274 239.292 63.9936 238.753 63.7734C238.213 63.5462 237.549 63.4325 236.76 63.4325H234.161V81H228.888ZM241.171 71.0284L246.604 81H240.851L235.525 71.0284H241.171ZM269.344 70.0909C269.344 72.4915 268.882 74.5263 267.959 76.1953C267.036 77.8643 265.786 79.1321 264.209 79.9986C262.639 80.8651 260.878 81.2983 258.925 81.2983C256.965 81.2983 255.2 80.8615 253.63 79.9879C252.061 79.1143 250.814 77.8466 249.891 76.1847C248.975 74.5156 248.517 72.4844 248.517 70.0909C248.517 67.6903 248.975 65.6555 249.891 63.9865C250.814 62.3175 252.061 61.0497 253.63 60.1832C255.2 59.3168 256.965 58.8835 258.925 58.8835C260.878 58.8835 262.639 59.3168 264.209 60.1832C265.786 61.0497 267.036 62.3175 267.959 63.9865C268.882 65.6555 269.344 67.6903 269.344 70.0909ZM263.953 70.0909C263.953 68.6705 263.751 67.4702 263.346 66.4901C262.948 65.5099 262.373 64.7678 261.62 64.2635C260.874 63.7592 259.976 63.5071 258.925 63.5071C257.881 63.5071 256.982 63.7592 256.23 64.2635C255.477 64.7678 254.898 65.5099 254.493 66.4901C254.095 67.4702 253.896 68.6705 253.896 70.0909C253.896 71.5114 254.095 72.7116 254.493 73.6918C254.898 74.6719 255.477 75.4141 256.23 75.9183C256.982 76.4226 257.881 76.6747 258.925 76.6747C259.976 76.6747 260.874 76.4226 261.62 75.9183C262.373 75.4141 262.948 74.6719 263.346 73.6918C263.751 72.7116 263.953 71.5114 263.953 70.0909Z" fill="#82786F"/>
<path d="M272.423 59.1818H278.953L284.493 72.6903H284.749L290.289 59.1818H296.819V81H291.684V67.598H291.503L286.262 80.8615H282.98L277.739 67.5234H277.558V81H272.423V59.1818ZM300.108 81V59.1818H315.321V63.4645H305.382V67.9389H314.544V72.2322H305.382V76.7173H315.321V81H300.108ZM317.91 63.4645V59.1818H336.351V63.4645H329.735V81H324.537V63.4645H317.91ZM338.927 81V59.1818H354.14V63.4645H344.2V67.9389H353.362V72.2322H344.2V76.7173H354.14V81H338.927ZM357.442 81V59.1818H366.455C368.089 59.1818 369.498 59.4766 370.684 60.0661C371.878 60.6484 372.797 61.4865 373.444 62.5803C374.09 63.6669 374.413 64.956 374.413 66.4474C374.413 67.9602 374.083 69.2457 373.422 70.304C372.762 71.3551 371.824 72.1577 370.61 72.7116C369.395 73.2585 367.957 73.532 366.295 73.532H360.596V69.3771H365.315C366.111 69.3771 366.775 69.2741 367.307 69.0682C367.847 68.8551 368.256 68.5355 368.532 68.1094C368.809 67.6761 368.948 67.1222 368.948 66.4474C368.948 65.7727 368.809 65.2152 368.532 64.7749C368.256 64.3274 367.847 63.9936 367.307 63.7734C366.768 63.5462 366.104 63.4325 365.315 63.4325H362.716V81H357.442ZM369.726 71.0284L375.159 81H369.406L364.079 71.0284H369.726Z" fill="#E41E26"/>
<line x1="130" y1="87.5" x2="374" y2="87.5" stroke="#475073"/>
<path d="M134.847 94.7273V110H131.156V94.7273H134.847ZM140.811 103.467V110H137.165V98.5455H140.632V100.648H140.759C141.013 99.9474 141.445 99.3981 142.057 99.0004C142.668 98.5977 143.397 98.3963 144.242 98.3963C145.047 98.3963 145.746 98.5778 146.337 98.9407C146.934 99.2986 147.396 99.8008 147.724 100.447C148.057 101.088 148.222 101.839 148.217 102.699V110H144.57V103.415C144.575 102.779 144.413 102.282 144.085 101.924C143.762 101.566 143.312 101.387 142.735 101.387C142.353 101.387 142.014 101.471 141.721 101.64C141.433 101.804 141.209 102.04 141.05 102.349C140.896 102.657 140.816 103.03 140.811 103.467ZM160.475 102.043L157.126 102.132C157.091 101.894 156.997 101.683 156.843 101.499C156.689 101.31 156.487 101.163 156.239 101.059C155.995 100.949 155.712 100.895 155.389 100.895C154.966 100.895 154.606 100.979 154.307 101.148C154.014 101.317 153.87 101.546 153.875 101.834C153.87 102.058 153.959 102.252 154.143 102.416C154.332 102.58 154.668 102.712 155.15 102.811L157.357 103.229C158.501 103.447 159.351 103.81 159.908 104.317C160.47 104.825 160.753 105.496 160.758 106.331C160.753 107.116 160.519 107.8 160.057 108.382C159.6 108.963 158.973 109.416 158.178 109.739C157.382 110.057 156.472 110.216 155.448 110.216C153.813 110.216 152.523 109.881 151.578 109.21C150.638 108.533 150.101 107.629 149.967 106.495L153.569 106.406C153.649 106.823 153.855 107.141 154.188 107.36C154.521 107.579 154.946 107.688 155.463 107.688C155.931 107.688 156.311 107.601 156.604 107.427C156.898 107.253 157.047 107.022 157.052 106.734C157.047 106.475 156.932 106.269 156.709 106.115C156.485 105.956 156.134 105.831 155.657 105.742L153.659 105.362C152.51 105.153 151.655 104.767 151.093 104.206C150.531 103.639 150.253 102.918 150.258 102.043C150.253 101.277 150.457 100.624 150.869 100.082C151.282 99.5348 151.869 99.1172 152.629 98.8288C153.39 98.5405 154.287 98.3963 155.322 98.3963C156.873 98.3963 158.096 98.7219 158.991 99.3732C159.885 100.02 160.38 100.909 160.475 102.043ZM169.019 98.5455V101.23H161.793V98.5455H169.019ZM163.307 95.8011H166.953V106.398C166.953 106.622 166.988 106.803 167.058 106.942C167.132 107.077 167.239 107.174 167.378 107.233C167.517 107.288 167.684 107.315 167.878 107.315C168.017 107.315 168.164 107.303 168.318 107.278C168.477 107.248 168.596 107.223 168.676 107.203L169.228 109.836C169.054 109.886 168.808 109.948 168.489 110.022C168.176 110.097 167.801 110.144 167.363 110.164C166.508 110.204 165.775 110.104 165.163 109.866C164.557 109.622 164.092 109.244 163.769 108.732C163.451 108.22 163.297 107.576 163.307 106.801V95.8011ZM174.109 110.194C173.378 110.194 172.729 110.072 172.162 109.828C171.6 109.58 171.155 109.207 170.827 108.71C170.504 108.208 170.343 107.579 170.343 106.823C170.343 106.187 170.454 105.65 170.678 105.212C170.902 104.775 171.21 104.419 171.603 104.146C171.996 103.873 172.448 103.666 172.96 103.527C173.472 103.383 174.019 103.286 174.601 103.236C175.252 103.176 175.777 103.114 176.174 103.05C176.572 102.98 176.86 102.883 177.039 102.759C177.223 102.63 177.315 102.448 177.315 102.214V102.177C177.315 101.794 177.184 101.499 176.92 101.29C176.657 101.081 176.301 100.977 175.854 100.977C175.371 100.977 174.984 101.081 174.69 101.29C174.397 101.499 174.21 101.787 174.131 102.155L170.768 102.036C170.867 101.339 171.123 100.718 171.536 100.171C171.953 99.6193 172.525 99.1868 173.251 98.8736C173.982 98.5554 174.859 98.3963 175.883 98.3963C176.614 98.3963 177.288 98.4833 177.904 98.6573C178.521 98.8263 179.058 99.0749 179.515 99.4031C179.973 99.7262 180.326 100.124 180.574 100.596C180.828 101.069 180.954 101.608 180.954 102.214V110H177.524V108.404H177.435C177.231 108.792 176.97 109.12 176.652 109.388C176.338 109.657 175.968 109.858 175.54 109.993C175.118 110.127 174.641 110.194 174.109 110.194ZM175.235 107.808C175.627 107.808 175.98 107.728 176.294 107.569C176.612 107.41 176.865 107.191 177.054 106.913C177.243 106.629 177.338 106.301 177.338 105.928V104.839C177.233 104.894 177.106 104.944 176.957 104.989C176.813 105.033 176.654 105.076 176.48 105.115C176.306 105.155 176.127 105.19 175.943 105.22C175.759 105.25 175.583 105.277 175.414 105.302C175.071 105.357 174.777 105.441 174.534 105.555C174.295 105.67 174.111 105.819 173.982 106.003C173.858 106.182 173.795 106.396 173.795 106.644C173.795 107.022 173.93 107.31 174.198 107.509C174.472 107.708 174.817 107.808 175.235 107.808ZM186.831 94.7273V110H183.184V94.7273H186.831ZM192.799 94.7273V110H189.152V94.7273H192.799ZM198.349 110.194C197.618 110.194 196.969 110.072 196.402 109.828C195.841 109.58 195.396 109.207 195.068 108.71C194.744 108.208 194.583 107.579 194.583 106.823C194.583 106.187 194.695 105.65 194.918 105.212C195.142 104.775 195.45 104.419 195.843 104.146C196.236 103.873 196.688 103.666 197.2 103.527C197.712 103.383 198.259 103.286 198.841 103.236C199.492 103.176 200.017 103.114 200.415 103.05C200.812 102.98 201.101 102.883 201.28 102.759C201.464 102.63 201.555 102.448 201.555 102.214V102.177C201.555 101.794 201.424 101.499 201.16 101.29C200.897 101.081 200.541 100.977 200.094 100.977C199.612 100.977 199.224 101.081 198.93 101.29C198.637 101.499 198.451 101.787 198.371 102.155L195.008 102.036C195.107 101.339 195.363 100.718 195.776 100.171C196.194 99.6193 196.765 99.1868 197.491 98.8736C198.222 98.5554 199.1 98.3963 200.124 98.3963C200.854 98.3963 201.528 98.4833 202.145 98.6573C202.761 98.8263 203.298 99.0749 203.755 99.4031C204.213 99.7262 204.566 100.124 204.814 100.596C205.068 101.069 205.195 101.608 205.195 102.214V110H201.764V108.404H201.675C201.471 108.792 201.21 109.12 200.892 109.388C200.579 109.657 200.208 109.858 199.781 109.993C199.358 110.127 198.881 110.194 198.349 110.194ZM199.475 107.808C199.868 107.808 200.221 107.728 200.534 107.569C200.852 107.41 201.106 107.191 201.294 106.913C201.483 106.629 201.578 106.301 201.578 105.928V104.839C201.473 104.894 201.347 104.944 201.198 104.989C201.053 105.033 200.894 105.076 200.72 105.115C200.546 105.155 200.367 105.19 200.183 105.22C199.999 105.25 199.823 105.277 199.654 105.302C199.311 105.357 199.017 105.441 198.774 105.555C198.535 105.67 198.351 105.819 198.222 106.003C198.098 106.182 198.036 106.396 198.036 106.644C198.036 107.022 198.17 107.31 198.438 107.509C198.712 107.708 199.057 107.808 199.475 107.808ZM213.89 98.5455V101.23H206.664V98.5455H213.89ZM208.178 95.8011H211.824V106.398C211.824 106.622 211.859 106.803 211.929 106.942C212.003 107.077 212.11 107.174 212.249 107.233C212.389 107.288 212.555 107.315 212.749 107.315C212.888 107.315 213.035 107.303 213.189 107.278C213.348 107.248 213.467 107.223 213.547 107.203L214.099 109.836C213.925 109.886 213.679 109.948 213.361 110.022C213.047 110.097 212.672 110.144 212.234 110.164C211.379 110.204 210.646 110.104 210.035 109.866C209.428 109.622 208.963 109.244 208.64 108.732C208.322 108.22 208.168 107.576 208.178 106.801V95.8011ZM215.751 110V98.5455H219.397V110H215.751ZM217.578 97.2106C217.066 97.2106 216.626 97.0415 216.258 96.7035C215.89 96.3604 215.706 95.9478 215.706 95.4656C215.706 94.9883 215.89 94.5806 216.258 94.2425C216.626 93.8995 217.066 93.728 217.578 93.728C218.095 93.728 218.535 93.8995 218.898 94.2425C219.266 94.5806 219.449 94.9883 219.449 95.4656C219.449 95.9478 219.266 96.3604 218.898 96.7035C218.535 97.0415 218.095 97.2106 217.578 97.2106ZM227.065 110.216C225.862 110.216 224.828 109.97 223.963 109.478C223.103 108.981 222.439 108.29 221.972 107.405C221.51 106.515 221.278 105.483 221.278 104.31C221.278 103.132 221.51 102.1 221.972 101.215C222.439 100.325 223.103 99.6342 223.963 99.142C224.828 98.6449 225.862 98.3963 227.065 98.3963C228.268 98.3963 229.3 98.6449 230.16 99.142C231.025 99.6342 231.689 100.325 232.151 101.215C232.619 102.1 232.852 103.132 232.852 104.31C232.852 105.483 232.619 106.515 232.151 107.405C231.689 108.29 231.025 108.981 230.16 109.478C229.3 109.97 228.268 110.216 227.065 110.216ZM227.088 107.464C227.525 107.464 227.896 107.33 228.199 107.062C228.502 106.793 228.733 106.42 228.892 105.943C229.056 105.466 229.138 104.914 229.138 104.288C229.138 103.651 229.056 103.094 228.892 102.617C228.733 102.14 228.502 101.767 228.199 101.499C227.896 101.23 227.525 101.096 227.088 101.096C226.635 101.096 226.252 101.23 225.939 101.499C225.631 101.767 225.395 102.14 225.231 102.617C225.072 103.094 224.992 103.651 224.992 104.288C224.992 104.914 225.072 105.466 225.231 105.943C225.395 106.42 225.631 106.793 225.939 107.062C226.252 107.33 226.635 107.464 227.088 107.464ZM238.367 103.467V110H234.72V98.5455H238.188V100.648H238.315C238.568 99.9474 239.001 99.3981 239.612 99.0004C240.224 98.5977 240.952 98.3963 241.797 98.3963C242.603 98.3963 243.301 98.5778 243.893 98.9407C244.49 99.2986 244.952 99.8008 245.28 100.447C245.613 101.088 245.777 101.839 245.772 102.699V110H242.126V103.415C242.131 102.779 241.969 102.282 241.641 101.924C241.318 101.566 240.868 101.387 240.291 101.387C239.908 101.387 239.57 101.471 239.277 101.64C238.988 101.804 238.765 102.04 238.606 102.349C238.452 102.657 238.372 103.03 238.367 103.467ZM258.03 102.043L254.682 102.132C254.647 101.894 254.553 101.683 254.399 101.499C254.244 101.31 254.043 101.163 253.794 101.059C253.551 100.949 253.267 100.895 252.944 100.895C252.522 100.895 252.161 100.979 251.863 101.148C251.57 101.317 251.426 101.546 251.43 101.834C251.426 102.058 251.515 102.252 251.699 102.416C251.888 102.58 252.223 102.712 252.706 102.811L254.913 103.229C256.057 103.447 256.907 103.81 257.464 104.317C258.025 104.825 258.309 105.496 258.314 106.331C258.309 107.116 258.075 107.8 257.613 108.382C257.155 108.963 256.529 109.416 255.733 109.739C254.938 110.057 254.028 110.216 253.004 110.216C251.368 110.216 250.078 109.881 249.134 109.21C248.194 108.533 247.657 107.629 247.523 106.495L251.125 106.406C251.204 106.823 251.411 107.141 251.744 107.36C252.077 107.579 252.502 107.688 253.019 107.688C253.486 107.688 253.867 107.601 254.16 107.427C254.453 107.253 254.602 107.022 254.607 106.734C254.602 106.475 254.488 106.269 254.264 106.115C254.041 105.956 253.69 105.831 253.213 105.742L251.214 105.362C250.066 105.153 249.211 104.767 248.649 104.206C248.087 103.639 247.809 102.918 247.814 102.043C247.809 101.277 248.013 100.624 248.425 100.082C248.838 99.5348 249.424 99.1172 250.185 98.8288C250.946 98.5405 251.843 98.3963 252.877 98.3963C254.428 98.3963 255.651 98.7219 256.546 99.3732C257.441 100.02 257.936 100.909 258.03 102.043ZM268.282 110L263.838 94.7273H267.917L270.221 104.735H270.348L272.98 94.7273H276.306L278.939 104.757H279.066L281.377 94.7273H285.449L281.012 110H277.455L274.703 100.738H274.584L271.832 110H268.282ZM291.05 110.216C289.847 110.216 288.813 109.97 287.947 109.478C287.087 108.981 286.424 108.29 285.956 107.405C285.494 106.515 285.263 105.483 285.263 104.31C285.263 103.132 285.494 102.1 285.956 101.215C286.424 100.325 287.087 99.6342 287.947 99.142C288.813 98.6449 289.847 98.3963 291.05 98.3963C292.253 98.3963 293.284 98.6449 294.145 99.142C295.01 99.6342 295.673 100.325 296.136 101.215C296.603 102.1 296.837 103.132 296.837 104.31C296.837 105.483 296.603 106.515 296.136 107.405C295.673 108.29 295.01 108.981 294.145 109.478C293.284 109.97 292.253 110.216 291.05 110.216ZM291.072 107.464C291.51 107.464 291.88 107.33 292.183 107.062C292.487 106.793 292.718 106.42 292.877 105.943C293.041 105.466 293.123 104.914 293.123 104.288C293.123 103.651 293.041 103.094 292.877 102.617C292.718 102.14 292.487 101.767 292.183 101.499C291.88 101.23 291.51 101.096 291.072 101.096C290.62 101.096 290.237 101.23 289.924 101.499C289.615 101.767 289.379 102.14 289.215 102.617C289.056 103.094 288.977 103.651 288.977 104.288C288.977 104.914 289.056 105.466 289.215 105.943C289.379 106.42 289.615 106.793 289.924 107.062C290.237 107.33 290.62 107.464 291.072 107.464ZM298.705 110V98.5455H302.247V100.634H302.366C302.575 99.8778 302.916 99.3161 303.388 98.9482C303.86 98.5753 304.41 98.3888 305.036 98.3888C305.205 98.3888 305.379 98.4013 305.558 98.4261C305.737 98.446 305.904 98.4783 306.058 98.5231V101.692C305.884 101.633 305.655 101.586 305.372 101.551C305.093 101.516 304.845 101.499 304.626 101.499C304.193 101.499 303.803 101.596 303.455 101.789C303.112 101.978 302.841 102.244 302.642 102.587C302.448 102.925 302.351 103.323 302.351 103.781V110H298.705ZM310.832 106.995L310.847 102.647H311.354L314.576 98.5455H318.707L313.92 104.422H312.958L310.832 106.995ZM307.544 110V94.7273H311.19V110H307.544ZM314.658 110L311.66 105.242L314.061 102.654L318.871 110H314.658ZM326.523 98.5455V101.23H319.155V98.5455H326.523ZM320.691 110V97.9638C320.691 97.0788 320.858 96.3455 321.191 95.7638C321.524 95.1772 321.986 94.7397 322.578 94.4513C323.169 94.158 323.853 94.0114 324.628 94.0114C325.136 94.0114 325.613 94.0511 326.06 94.1307C326.513 94.2053 326.848 94.2724 327.067 94.332L326.485 97.0018C326.351 96.957 326.187 96.9197 325.993 96.8899C325.804 96.8601 325.625 96.8452 325.456 96.8452C325.029 96.8452 324.735 96.9396 324.576 97.1286C324.417 97.3175 324.338 97.576 324.338 97.9041V110H320.691ZM333.255 110.216C332.052 110.216 331.018 109.97 330.153 109.478C329.292 108.981 328.629 108.29 328.161 107.405C327.699 106.515 327.468 105.483 327.468 104.31C327.468 103.132 327.699 102.1 328.161 101.215C328.629 100.325 329.292 99.6342 330.153 99.142C331.018 98.6449 332.052 98.3963 333.255 98.3963C334.458 98.3963 335.49 98.6449 336.35 99.142C337.215 99.6342 337.878 100.325 338.341 101.215C338.808 102.1 339.042 103.132 339.042 104.31C339.042 105.483 338.808 106.515 338.341 107.405C337.878 108.29 337.215 108.981 336.35 109.478C335.49 109.97 334.458 110.216 333.255 110.216ZM333.277 107.464C333.715 107.464 334.085 107.33 334.388 107.062C334.692 106.793 334.923 106.42 335.082 105.943C335.246 105.466 335.328 104.914 335.328 104.288C335.328 103.651 335.246 103.094 335.082 102.617C334.923 102.14 334.692 101.767 334.388 101.499C334.085 101.23 333.715 101.096 333.277 101.096C332.825 101.096 332.442 101.23 332.129 101.499C331.82 101.767 331.584 102.14 331.42 102.617C331.261 103.094 331.182 103.651 331.182 104.288C331.182 104.914 331.261 105.466 331.42 105.943C331.584 106.42 331.82 106.793 332.129 107.062C332.442 107.33 332.825 107.464 333.277 107.464ZM340.91 110V98.5455H344.452V100.634H344.571C344.78 99.8778 345.121 99.3161 345.593 98.9482C346.065 98.5753 346.615 98.3888 347.241 98.3888C347.41 98.3888 347.584 98.4013 347.763 98.4261C347.942 98.446 348.109 98.4783 348.263 98.5231V101.692C348.089 101.633 347.86 101.586 347.577 101.551C347.298 101.516 347.05 101.499 346.831 101.499C346.398 101.499 346.008 101.596 345.66 101.789C345.317 101.978 345.046 102.244 344.847 102.587C344.653 102.925 344.556 103.323 344.556 103.781V110H340.91ZM354.501 110.216C353.293 110.216 352.256 109.968 351.391 109.471C350.531 108.973 349.87 108.282 349.407 107.397C348.945 106.507 348.714 105.478 348.714 104.31C348.714 103.137 348.945 102.108 349.407 101.223C349.875 100.333 350.539 99.6392 351.399 99.142C352.264 98.6449 353.295 98.3963 354.493 98.3963C355.552 98.3963 356.475 98.5877 357.26 98.9705C358.051 99.3533 358.667 99.8952 359.11 100.596C359.557 101.292 359.793 102.11 359.818 103.05H356.41C356.34 102.463 356.142 102.003 355.813 101.67C355.49 101.337 355.068 101.17 354.546 101.17C354.123 101.17 353.753 101.29 353.434 101.528C353.116 101.762 352.868 102.11 352.689 102.572C352.515 103.03 352.428 103.597 352.428 104.273C352.428 104.949 352.515 105.521 352.689 105.988C352.868 106.45 353.116 106.801 353.434 107.039C353.753 107.273 354.123 107.39 354.546 107.39C354.884 107.39 355.182 107.318 355.441 107.174C355.704 107.029 355.92 106.818 356.089 106.54C356.258 106.256 356.365 105.913 356.41 105.511H359.818C359.783 106.455 359.547 107.281 359.11 107.987C358.677 108.692 358.068 109.242 357.282 109.635C356.502 110.022 355.575 110.216 354.501 110.216ZM367.039 110.216C365.84 110.216 364.806 109.98 363.936 109.508C363.071 109.031 362.405 108.352 361.938 107.472C361.475 106.587 361.244 105.536 361.244 104.317C361.244 103.134 361.478 102.1 361.945 101.215C362.413 100.325 363.071 99.6342 363.921 99.142C364.772 98.6449 365.773 98.3963 366.927 98.3963C367.742 98.3963 368.488 98.5231 369.164 98.7766C369.84 99.0302 370.424 99.4055 370.916 99.9027C371.409 100.4 371.791 101.014 372.065 101.745C372.338 102.471 372.475 103.303 372.475 104.243V105.153H362.519V103.035H369.082C369.077 102.647 368.985 102.301 368.806 101.998C368.627 101.695 368.381 101.459 368.068 101.29C367.759 101.116 367.404 101.029 367.001 101.029C366.594 101.029 366.228 101.121 365.905 101.305C365.582 101.484 365.326 101.73 365.137 102.043C364.948 102.351 364.849 102.702 364.839 103.094V105.25C364.839 105.717 364.931 106.127 365.115 106.48C365.299 106.828 365.56 107.099 365.898 107.293C366.236 107.487 366.638 107.584 367.106 107.584C367.429 107.584 367.722 107.539 367.986 107.45C368.249 107.36 368.475 107.228 368.664 107.054C368.853 106.88 368.995 106.667 369.089 106.413L372.438 106.51C372.299 107.261 371.993 107.914 371.521 108.471C371.053 109.023 370.439 109.453 369.679 109.761C368.918 110.065 368.038 110.216 367.039 110.216Z" fill="#475073"/>
</svg>
