<svg width="108" height="34" viewBox="0 0 108 34" fill="none" xmlns="http://www.w3.org/2000/svg">
<path d="M3.15269 23.9494C2.8912 22.4061 3.2369 20.6286 3.58776 19.4765C4.56151 16.2755 6.79839 14.0879 9.37637 12.5956C10.5989 11.8514 11.978 11.2967 13.381 10.7678C14.2302 10.4319 15.1302 10.2147 15.6233 9.54016C16.103 8.84491 15.6233 8.21922 15.2167 7.83427C14.3251 7.04131 12.843 6.92038 11.8478 6.17603C11.5603 5.95908 11.1202 5.66982 11.2779 4.99682C11.5385 3.86727 12.7812 3.29061 13.6238 2.85712C15.7847 1.70363 18.7772 0.741369 21.9684 0.741369C20.3992 0.283697 18.722 0 16.9897 0C7.61114 0 0 7.61918 0 16.9984C0 21.1558 1.47248 24.955 3.92942 27.8908C3.79807 27.3636 3.58776 26.3997 3.45858 25.9173C3.35471 25.2449 3.25664 24.619 3.15269 23.9494Z" fill="#E41E26"/>
<path d="M33.9856 16.9984C33.9856 11.6333 31.458 6.80171 27.5237 3.69797C26.304 3.12179 24.5159 3.21684 22.7558 3.24167C22.1204 3.33866 21.4734 3.45854 20.8334 3.55359C19.9298 3.7952 19.053 4.20369 18.3331 4.63734C17.9993 4.85171 17.1956 5.1662 17.4385 5.83945C17.9579 7.23254 21.1795 7.49753 22.3722 8.38869C22.859 8.74768 23.6213 9.47059 23.0427 10.2883C22.5185 11.0076 21.4037 11.2484 20.5434 11.5871C18.4401 12.4511 15.8879 12.7419 14.0881 13.8946C11.737 15.3371 10.0134 17.2378 8.97152 20.0528C8.7276 20.727 8.63969 21.4936 8.52574 22.3112C8.40834 23.0316 8.36063 23.9943 8.47651 24.7638C8.62115 25.7268 8.57401 26.5435 8.81028 27.3636C9.68234 30.6798 11.874 32.6517 14.9672 33.662C15.2249 33.7122 16.3063 33.9017 17.1924 34C26.4952 33.9017 33.9856 26.3042 33.9856 16.9984Z" fill="#E41E26"/>
<path d="M46.5612 5.37611C46.4865 5.09947 46.3768 4.85576 46.232 4.64499C46.0871 4.42982 45.9094 4.24759 45.6987 4.09829C45.488 3.949 45.2466 3.83702 44.9745 3.76237C44.7024 3.68333 44.4039 3.64381 44.0791 3.64381C43.4251 3.64381 42.8589 3.80189 42.3805 4.11805C41.9065 4.43421 41.54 4.89528 41.2811 5.50125C41.0221 6.10283 40.8926 6.83395 40.8926 7.69461C40.8926 8.55966 41.0177 9.29737 41.2679 9.90773C41.5181 10.5181 41.8802 10.9836 42.3542 11.3041C42.8282 11.6247 43.4032 11.7849 44.0791 11.7849C44.676 11.7849 45.1808 11.6883 45.5934 11.4951C46.0103 11.2975 46.3264 11.0187 46.5414 10.6586C46.7565 10.2985 46.864 9.8748 46.864 9.38738L47.4697 9.45984H44.191V7.08205H50.0044V8.86704C50.0044 10.0746 49.7477 11.1087 49.2341 11.9694C48.725 12.83 48.0227 13.4909 47.1274 13.9519C46.2364 14.413 45.2115 14.6435 44.0528 14.6435C42.7668 14.6435 41.6366 14.3647 40.6622 13.807C39.6878 13.2494 38.9285 12.4546 38.3842 11.4227C37.84 10.3864 37.5679 9.15685 37.5679 7.73413C37.5679 6.62757 37.7324 5.64616 38.0616 4.78989C38.3908 3.92924 38.8495 3.20031 39.4376 2.60312C40.0302 2.00593 40.7149 1.55365 41.4917 1.24627C42.273 0.938891 43.1135 0.785202 44.0133 0.785202C44.7945 0.785202 45.5209 0.897176 46.1925 1.12112C46.8684 1.34507 47.4653 1.66123 47.9832 2.0696C48.5055 2.47797 48.9291 2.96319 49.2539 3.52525C49.5787 4.08732 49.7806 4.70427 49.8596 5.37611H46.5612Z" fill="#E41E26"/>
<path d="M51.9252 14.4591V0.969629H55.1841V6.38387H60.4972V0.969629H63.7495V14.4591H60.4972V9.03829H55.1841V14.4591H51.9252Z" fill="#E41E26"/>
<path d="M68.7103 14.4591H65.2078L69.7571 0.969629H74.0958L78.6451 14.4591H75.1426L71.9758 4.36835H71.8705L68.7103 14.4591ZM68.2429 9.15026H75.5639V11.6268H68.2429V9.15026Z" fill="#E41E26"/>
<path d="M91.5721 0.969629V14.4591H88.807L83.4413 6.67368H83.3557V14.4591H80.0968V0.969629H82.9014L88.2079 8.74189H88.3198V0.969629H91.5721Z" fill="#E41E26"/>
<path d="M96.5379 14.4591H93.0353L97.5847 0.969629H101.923L106.473 14.4591H102.97L99.8034 4.36835H99.698L96.5379 14.4591ZM96.0704 9.15026H103.391V11.6268H96.0704V9.15026Z" fill="#E41E26"/>
<path d="M37.4603 22.8637V16.5405H41.8672V17.7817H38.9879V19.0784H41.6419V20.3227H38.9879V21.6225H41.8672V22.8637H37.4603Z" fill="#82786F"/>
<path d="M42.8239 22.8637V16.5405H44.3515V21.6225H46.9809V22.8637H42.8239Z" fill="#82786F"/>
<path d="M47.7717 22.8637V16.5405H52.1786V17.7817H49.2993V19.0784H51.9534V20.3227H49.2993V21.6225H52.1786V22.8637H47.7717Z" fill="#82786F"/>
<path d="M58.8724 18.8314H57.3293C57.3088 18.6729 57.2666 18.5299 57.2028 18.4023C57.139 18.2746 57.0547 18.1656 56.9497 18.075C56.8448 17.9844 56.7203 17.9155 56.5763 17.8681C56.4344 17.8187 56.277 17.794 56.1042 17.794C55.7976 17.794 55.5332 17.8692 55.311 18.0194C55.0909 18.1697 54.9211 18.3868 54.8018 18.6709C54.6845 18.9549 54.6259 19.2987 54.6259 19.7021C54.6259 20.122 54.6856 20.474 54.8049 20.758C54.9263 21.04 55.096 21.253 55.3141 21.3971C55.5343 21.5392 55.7945 21.6102 56.0949 21.6102C56.2636 21.6102 56.4169 21.5886 56.5547 21.5453C56.6946 21.5021 56.817 21.4393 56.922 21.357C57.029 21.2726 57.1164 21.1707 57.1843 21.0513C57.2542 20.9299 57.3026 20.793 57.3293 20.6407L58.8724 20.65C58.8456 20.9299 58.7644 21.2057 58.6286 21.4774C58.4949 21.7491 58.3107 21.9971 58.0762 22.2215C57.8416 22.4438 57.5557 22.6208 57.2182 22.7525C56.8829 22.8843 56.4981 22.9501 56.064 22.9501C55.4921 22.9501 54.9798 22.8246 54.5272 22.5735C54.0766 22.3203 53.7207 21.9519 53.4594 21.4681C53.1981 20.9844 53.0674 20.3958 53.0674 19.7021C53.0674 19.0064 53.2001 18.4167 53.4655 17.933C53.7309 17.4493 54.09 17.0818 54.5426 16.8307C54.9952 16.5796 55.5024 16.454 56.064 16.454C56.4467 16.454 56.8006 16.5076 57.1257 16.6146C57.4507 16.7196 57.7367 16.8739 57.9836 17.0777C58.2305 17.2794 58.4311 17.5275 58.5854 17.8218C58.7397 18.1162 58.8354 18.4527 58.8724 18.8314Z" fill="#82786F"/>
<path d="M59.5398 17.7817V16.5405H64.8818V17.7817H62.9653V22.8637H61.4593V17.7817H59.5398Z" fill="#82786F"/>
<path d="M65.6279 22.8637V16.5405H68.2387C68.7119 16.5405 69.1203 16.6259 69.4639 16.7968C69.8095 16.9655 70.076 17.2084 70.2632 17.5254C70.4504 17.8403 70.544 18.2139 70.544 18.6462C70.544 19.0846 70.4483 19.4572 70.257 19.7638C70.0657 20.0685 69.7941 20.3011 69.4423 20.4616C69.0905 20.6201 68.6738 20.6994 68.1924 20.6994H66.5413V19.4952H67.9085C68.1389 19.4952 68.3313 19.4654 68.4856 19.4057C68.6419 19.3439 68.7602 19.2513 68.8405 19.1278C68.9207 19.0023 68.9608 18.8417 68.9608 18.6462C68.9608 18.4506 68.9207 18.2891 68.8405 18.1614C68.7602 18.0318 68.6419 17.935 68.4856 17.8712C68.3292 17.8053 68.1369 17.7724 67.9085 17.7724H67.1555V22.8637H65.6279ZM69.1861 19.9738L70.76 22.8637H69.0935L67.5505 19.9738H69.1861Z" fill="#82786F"/>
<path d="M77.3473 19.7021C77.3473 20.3978 77.2136 20.9875 76.9461 21.4712C76.6787 21.9549 76.3166 22.3224 75.8598 22.5735C75.4051 22.8246 74.8949 22.9501 74.3291 22.9501C73.7613 22.9501 73.25 22.8236 72.7953 22.5704C72.3406 22.3172 71.9796 21.9498 71.7121 21.4681C71.4467 20.9844 71.314 20.3958 71.314 19.7021C71.314 19.0064 71.4467 18.4167 71.7121 17.933C71.9796 17.4493 72.3406 17.0818 72.7953 16.8307C73.25 16.5796 73.7613 16.454 74.3291 16.454C74.8949 16.454 75.4051 16.5796 75.8598 16.8307C76.3166 17.0818 76.6787 17.4493 76.9461 17.933C77.2136 18.4167 77.3473 19.0064 77.3473 19.7021ZM75.7858 19.7021C75.7858 19.2904 75.7271 18.9426 75.6098 18.6585C75.4946 18.3745 75.328 18.1594 75.1099 18.0132C74.8939 17.8671 74.6336 17.794 74.3291 17.794C74.0267 17.794 73.7664 17.8671 73.5483 18.0132C73.3302 18.1594 73.1626 18.3745 73.0453 18.6585C72.9301 18.9426 72.8725 19.2904 72.8725 19.7021C72.8725 20.1138 72.9301 20.4616 73.0453 20.7457C73.1626 21.0297 73.3302 21.2448 73.5483 21.391C73.7664 21.5371 74.0267 21.6102 74.3291 21.6102C74.6336 21.6102 74.8939 21.5371 75.1099 21.391C75.328 21.2448 75.4946 21.0297 75.6098 20.7457C75.7271 20.4616 75.7858 20.1138 75.7858 19.7021Z" fill="#82786F"/>
<path d="M78.2392 16.5405H80.131L81.7358 20.4554H81.8098L83.4146 16.5405H85.3064V22.8637H83.8189V18.9796H83.7664L82.248 22.8236H81.2975L79.7792 18.958H79.7267V22.8637H78.2392V16.5405Z" fill="#E41E26"/>
<path d="M86.2592 22.8637V16.5405H90.6662V17.7817H87.7868V19.0784H90.4409V20.3227H87.7868V21.6225H90.6662V22.8637H86.2592Z" fill="#E41E26"/>
<path d="M91.4161 17.7817V16.5405H96.7581V17.7817H94.8416V22.8637H93.3356V17.7817H91.4161Z" fill="#E41E26"/>
<path d="M97.5042 22.8637V16.5405H101.911V17.7817H99.0318V19.0784H101.686V20.3227H99.0318V21.6225H101.911V22.8637H97.5042Z" fill="#E41E26"/>
<path d="M102.868 22.8637V16.5405H105.479C105.952 16.5405 106.36 16.6259 106.704 16.7968C107.049 16.9655 107.316 17.2084 107.503 17.5254C107.69 17.8403 107.784 18.2139 107.784 18.6462C107.784 19.0846 107.688 19.4572 107.497 19.7638C107.306 20.0685 107.034 20.3011 106.682 20.4616C106.33 20.6201 105.914 20.6994 105.432 20.6994H103.781V19.4952H105.148C105.379 19.4952 105.571 19.4654 105.726 19.4057C105.882 19.3439 106 19.2513 106.08 19.1278C106.161 19.0023 106.201 18.8417 106.201 18.6462C106.201 18.4506 106.161 18.2891 106.08 18.1614C106 18.0318 105.882 17.935 105.726 17.8712C105.569 17.8053 105.377 17.7724 105.148 17.7724H104.395V22.8637H102.868ZM106.426 19.9738L108 22.8637H106.334L104.79 19.9738H106.426Z" fill="#E41E26"/>
<path d="M38.3861 26.842V31.2683H37.3168V26.842H38.3861Z" fill="#82786F"/>
<path d="M40.1138 29.375V31.2683H39.0574V27.9486H40.0619V28.5581H40.0986C40.1721 28.3549 40.2974 28.1957 40.4745 28.0804C40.6517 27.9637 40.8627 27.9054 41.1075 27.9054C41.3408 27.9054 41.5431 27.958 41.7145 28.0631C41.8873 28.1669 42.0213 28.3124 42.1163 28.4997C42.2128 28.6856 42.2603 28.9031 42.2589 29.1524V31.2683H41.2025V29.3599C41.204 29.1755 41.1572 29.0314 41.0621 28.9276C40.9685 28.8239 40.8382 28.772 40.6711 28.772C40.5602 28.772 40.4623 28.7965 40.3773 28.8455C40.2938 28.8931 40.229 28.9615 40.1829 29.0508C40.1382 29.1402 40.1152 29.2482 40.1138 29.375Z" fill="#82786F"/>
<path d="M45.8099 28.9622L44.8399 28.9882C44.8298 28.919 44.8025 28.8578 44.7578 28.8045C44.7132 28.7497 44.6548 28.7072 44.5828 28.6769C44.5123 28.6452 44.4302 28.6294 44.3366 28.6294C44.2141 28.6294 44.1097 28.6539 44.0233 28.7029C43.9383 28.7519 43.8966 28.8181 43.898 28.9017C43.8966 28.9665 43.9225 29.0227 43.9758 29.0703C44.0305 29.1178 44.1277 29.156 44.2674 29.1848L44.9069 29.3059C45.2381 29.3693 45.4844 29.4744 45.6457 29.6214C45.8084 29.7684 45.8905 29.9629 45.8919 30.2049C45.8905 30.4326 45.8228 30.6307 45.6889 30.7993C45.5564 30.9679 45.3749 31.099 45.1445 31.1926C44.9141 31.2848 44.6505 31.3309 44.3538 31.3309C43.88 31.3309 43.5063 31.2337 43.2327 31.0392C42.9605 30.8432 42.8049 30.581 42.766 30.2525L43.8094 30.2266C43.8325 30.3476 43.8923 30.4398 43.9887 30.5032C44.0852 30.5666 44.2084 30.5983 44.3582 30.5983C44.4935 30.5983 44.6037 30.5731 44.6887 30.5226C44.7736 30.4722 44.8168 30.4052 44.8183 30.3216C44.8168 30.2467 44.7837 30.1869 44.7189 30.1423C44.6541 30.0962 44.5526 30.0601 44.4143 30.0342L43.8354 29.924C43.5027 29.8635 43.255 29.7518 43.0922 29.589C42.9295 29.4247 42.8488 29.2158 42.8503 28.9622C42.8488 28.7403 42.9079 28.5509 43.0274 28.3938C43.147 28.2353 43.3169 28.1143 43.5373 28.0307C43.7576 27.9472 44.0176 27.9054 44.3171 27.9054C44.7664 27.9054 45.1207 27.9997 45.38 28.1885C45.6392 28.3758 45.7825 28.6337 45.8099 28.9622Z" fill="#82786F"/>
<path d="M48.285 27.9486V28.7266H46.1917V27.9486H48.285ZM46.6302 27.1533H47.6866V30.2244C47.6866 30.2892 47.6967 30.3418 47.7168 30.3822C47.7384 30.4211 47.7694 30.4492 47.8097 30.4665C47.85 30.4823 47.8983 30.4902 47.9545 30.4902C47.9948 30.4902 48.0373 30.4866 48.0819 30.4794C48.128 30.4708 48.1626 30.4636 48.1856 30.4578L48.3455 31.2207C48.2951 31.2351 48.2238 31.2531 48.1316 31.2748C48.0409 31.2964 47.9321 31.3101 47.8054 31.3158C47.5577 31.3273 47.3453 31.2985 47.1681 31.2294C46.9924 31.1588 46.8578 31.0493 46.7642 30.9009C46.672 30.7525 46.6273 30.5659 46.6302 30.3411V27.1533Z" fill="#82786F"/>
<path d="M49.7594 31.3245C49.5477 31.3245 49.3597 31.2892 49.1955 31.2186C49.0328 31.1465 48.9039 31.0385 48.8088 30.8944C48.7152 30.7489 48.6684 30.5666 48.6684 30.3476C48.6684 30.1632 48.7008 30.0075 48.7656 29.8808C48.8305 29.754 48.9197 29.6509 49.0335 29.5717C49.1473 29.4924 49.2783 29.4327 49.4267 29.3923C49.575 29.3505 49.7334 29.3224 49.9019 29.308C50.0906 29.2907 50.2425 29.2727 50.3578 29.254C50.473 29.2338 50.5565 29.2057 50.6084 29.1697C50.6616 29.1322 50.6883 29.0797 50.6883 29.0119V29.0011C50.6883 28.8902 50.6501 28.8045 50.5738 28.7439C50.4975 28.6834 50.3945 28.6532 50.2649 28.6532C50.1252 28.6532 50.0128 28.6834 49.9279 28.7439C49.8429 28.8045 49.7889 28.888 49.7659 28.9946L48.7916 28.9601C48.8204 28.7583 48.8945 28.5782 49.0141 28.4198C49.1351 28.2598 49.3007 28.1345 49.5109 28.0437C49.7226 27.9515 49.9768 27.9054 50.2735 27.9054C50.4852 27.9054 50.6804 27.9306 50.8589 27.981C51.0375 28.03 51.1931 28.102 51.3256 28.1971C51.4581 28.2908 51.5603 28.4061 51.6323 28.5429C51.7058 28.6798 51.7425 28.8362 51.7425 29.0119V31.2683H50.7488V30.8058H50.7228C50.6638 30.9182 50.5882 31.0132 50.496 31.0911C50.4053 31.1689 50.298 31.2272 50.1741 31.2661C50.0517 31.305 49.9135 31.3245 49.7594 31.3245ZM50.0856 30.6329C50.1993 30.6329 50.3016 30.6098 50.3923 30.5637C50.4845 30.5176 50.5579 30.4542 50.6127 30.3735C50.6674 30.2914 50.6948 30.1963 50.6948 30.0882V29.7727C50.6645 29.7885 50.6278 29.8029 50.5846 29.8159C50.5428 29.8289 50.4967 29.8411 50.4463 29.8527C50.3959 29.8642 50.3441 29.8743 50.2908 29.8829C50.2375 29.8916 50.1864 29.8995 50.1374 29.9067C50.038 29.9225 49.9531 29.947 49.8825 29.9802C49.8134 30.0133 49.7601 30.0565 49.7226 30.1098C49.6866 30.1617 49.6686 30.2237 49.6686 30.2957C49.6686 30.4052 49.7075 30.4888 49.7853 30.5464C49.8645 30.604 49.9646 30.6329 50.0856 30.6329Z" fill="#82786F"/>
<path d="M53.4448 26.842V31.2683H52.3884V26.842H53.4448Z" fill="#82786F"/>
<path d="M55.1735 26.842V31.2683H54.1172V26.842H55.1735Z" fill="#82786F"/>
<path d="M56.7813 31.3245C56.5696 31.3245 56.3817 31.2892 56.2175 31.2186C56.0548 31.1465 55.9259 31.0385 55.8308 30.8944C55.7372 30.7489 55.6904 30.5666 55.6904 30.3476C55.6904 30.1632 55.7228 30.0075 55.7876 29.8808C55.8524 29.754 55.9417 29.6509 56.0555 29.5717C56.1692 29.4924 56.3003 29.4327 56.4486 29.3923C56.597 29.3505 56.7554 29.3224 56.9239 29.308C57.1126 29.2907 57.2645 29.2727 57.3797 29.254C57.4949 29.2338 57.5785 29.2057 57.6303 29.1697C57.6836 29.1322 57.7102 29.0797 57.7102 29.0119V29.0011C57.7102 28.8902 57.6721 28.8045 57.5957 28.7439C57.5194 28.6834 57.4164 28.6532 57.2868 28.6532C57.1471 28.6532 57.0348 28.6834 56.9498 28.7439C56.8648 28.8045 56.8108 28.888 56.7878 28.9946L55.8135 28.9601C55.8423 28.7583 55.9165 28.5782 56.036 28.4198C56.157 28.2598 56.3226 28.1345 56.5329 28.0437C56.7446 27.9515 56.9988 27.9054 57.2955 27.9054C57.5072 27.9054 57.7023 27.9306 57.8809 27.981C58.0595 28.03 58.215 28.102 58.3475 28.1971C58.48 28.2908 58.5823 28.4061 58.6543 28.5429C58.7277 28.6798 58.7645 28.8362 58.7645 29.0119V31.2683H57.7707V30.8058H57.7448C57.6858 30.9182 57.6101 31.0132 57.518 31.0911C57.4272 31.1689 57.32 31.2272 57.1961 31.2661C57.0737 31.305 56.9354 31.3245 56.7813 31.3245ZM57.1075 30.6329C57.2213 30.6329 57.3236 30.6098 57.4143 30.5637C57.5065 30.5176 57.5799 30.4542 57.6346 30.3735C57.6894 30.2914 57.7167 30.1963 57.7167 30.0882V29.7727C57.6865 29.7885 57.6497 29.8029 57.6065 29.8159C57.5648 29.8289 57.5187 29.8411 57.4683 29.8527C57.4179 29.8642 57.366 29.8743 57.3127 29.8829C57.2595 29.8916 57.2083 29.8995 57.1594 29.9067C57.06 29.9225 56.975 29.947 56.9045 29.9802C56.8353 30.0133 56.782 30.0565 56.7446 30.1098C56.7086 30.1617 56.6906 30.2237 56.6906 30.2957C56.6906 30.4052 56.7295 30.4888 56.8072 30.5464C56.8865 30.604 56.9865 30.6329 57.1075 30.6329Z" fill="#82786F"/>
<path d="M61.2833 27.9486V28.7266H59.19V27.9486H61.2833ZM59.6286 27.1533H60.6849V30.2244C60.6849 30.2892 60.695 30.3418 60.7152 30.3822C60.7368 30.4211 60.7677 30.4492 60.8081 30.4665C60.8484 30.4823 60.8966 30.4902 60.9528 30.4902C60.9931 30.4902 61.0356 30.4866 61.0803 30.4794C61.1263 30.4708 61.1609 30.4636 61.184 30.4578L61.3438 31.2207C61.2934 31.2351 61.2221 31.2531 61.1299 31.2748C61.0392 31.2964 60.9305 31.3101 60.8037 31.3158C60.556 31.3273 60.3436 31.2985 60.1665 31.2294C59.9908 31.1588 59.8561 31.0493 59.7625 30.9009C59.6703 30.7525 59.6257 30.5659 59.6286 30.3411V27.1533Z" fill="#82786F"/>
<path d="M61.8223 31.2683V27.9486H62.8787V31.2683H61.8223ZM62.3516 27.5617C62.2032 27.5617 62.0758 27.5127 61.9692 27.4148C61.8626 27.3154 61.8093 27.1958 61.8093 27.056C61.8093 26.9177 61.8626 26.7995 61.9692 26.7016C62.0758 26.6021 62.2032 26.5524 62.3516 26.5524C62.5014 26.5524 62.6288 26.6021 62.7339 26.7016C62.8405 26.7995 62.8938 26.9177 62.8938 27.056C62.8938 27.1958 62.8405 27.3154 62.7339 27.4148C62.6288 27.5127 62.5014 27.5617 62.3516 27.5617Z" fill="#82786F"/>
<path d="M65.1 31.3309C64.7515 31.3309 64.4519 31.2596 64.2013 31.117C63.9522 30.9729 63.7599 30.7726 63.6245 30.5162C63.4906 30.2583 63.4236 29.9593 63.4236 29.6192C63.4236 29.2778 63.4906 28.9788 63.6245 28.7223C63.7599 28.4644 63.9522 28.2641 64.2013 28.1215C64.4519 27.9774 64.7515 27.9054 65.1 27.9054C65.4485 27.9054 65.7473 27.9774 65.9965 28.1215C66.2471 28.2641 66.4393 28.4644 66.5733 28.7223C66.7087 28.9788 66.7763 29.2778 66.7763 29.6192C66.7763 29.9593 66.7087 30.2583 66.5733 30.5162C66.4393 30.7726 66.2471 30.9729 65.9965 31.117C65.7473 31.2596 65.4485 31.3309 65.1 31.3309ZM65.1065 30.5335C65.2332 30.5335 65.3405 30.4945 65.4283 30.4167C65.5162 30.3389 65.5832 30.2309 65.6292 30.0926C65.6768 29.9542 65.7005 29.7943 65.7005 29.6128C65.7005 29.4283 65.6768 29.267 65.6292 29.1286C65.5832 28.9903 65.5162 28.8823 65.4283 28.8045C65.3405 28.7266 65.2332 28.6877 65.1065 28.6877C64.9754 28.6877 64.8645 28.7266 64.7738 28.8045C64.6845 28.8823 64.6161 28.9903 64.5686 29.1286C64.5225 29.267 64.4994 29.4283 64.4994 29.6128C64.4994 29.7943 64.5225 29.9542 64.5686 30.0926C64.6161 30.2309 64.6845 30.3389 64.7738 30.4167C64.8645 30.4945 64.9754 30.5335 65.1065 30.5335Z" fill="#82786F"/>
<path d="M68.3739 29.375V31.2683H67.3175V27.9486H68.322V28.5581H68.3587C68.4322 28.3549 68.5575 28.1957 68.7346 28.0804C68.9118 27.9637 69.1228 27.9054 69.3676 27.9054C69.6009 27.9054 69.8032 27.958 69.9746 28.0631C70.1474 28.1669 70.2814 28.3124 70.3764 28.4997C70.4729 28.6856 70.5205 28.9031 70.519 29.1524V31.2683H69.4626V29.3599C69.4641 29.1755 69.4173 29.0314 69.3222 28.9276C69.2286 28.8239 69.0983 28.772 68.9312 28.772C68.8203 28.772 68.7224 28.7965 68.6374 28.8455C68.5539 28.8931 68.4891 28.9615 68.443 29.0508C68.3983 29.1402 68.3753 29.2482 68.3739 29.375Z" fill="#82786F"/>
<path d="M74.07 28.9622L73.1 28.9882C73.0899 28.919 73.0626 28.8578 73.0179 28.8045C72.9733 28.7497 72.9149 28.7072 72.8429 28.6769C72.7724 28.6452 72.6903 28.6294 72.5967 28.6294C72.4742 28.6294 72.3698 28.6539 72.2834 28.7029C72.1984 28.7519 72.1567 28.8181 72.1581 28.9017C72.1567 28.9665 72.1826 29.0227 72.2359 29.0703C72.2906 29.1178 72.3878 29.156 72.5275 29.1848L73.167 29.3059C73.4982 29.3693 73.7445 29.4744 73.9058 29.6214C74.0685 29.7684 74.1506 29.9629 74.152 30.2049C74.1506 30.4326 74.0829 30.6307 73.949 30.7993C73.8165 30.9679 73.635 31.099 73.4046 31.1926C73.1742 31.2848 72.9106 31.3309 72.6139 31.3309C72.1401 31.3309 71.7664 31.2337 71.4928 31.0392C71.2206 30.8432 71.065 30.581 71.0261 30.2525L72.0695 30.2266C72.0926 30.3476 72.1524 30.4398 72.2489 30.5032C72.3453 30.5666 72.4685 30.5983 72.6183 30.5983C72.7536 30.5983 72.8638 30.5731 72.9488 30.5226C73.0337 30.4722 73.077 30.4052 73.0784 30.3216C73.077 30.2467 73.0438 30.1869 72.979 30.1423C72.9142 30.0962 72.8127 30.0601 72.6744 30.0342L72.0955 29.924C71.7628 29.8635 71.5151 29.7518 71.3523 29.589C71.1896 29.4247 71.1089 29.2158 71.1104 28.9622C71.1089 28.7403 71.168 28.5509 71.2875 28.3938C71.4071 28.2353 71.577 28.1143 71.7974 28.0307C72.0177 27.9472 72.2776 27.9054 72.5772 27.9054C73.0265 27.9054 73.3808 27.9997 73.6401 28.1885C73.8993 28.3758 74.0426 28.6337 74.07 28.9622Z" fill="#82786F"/>
<path d="M77.0398 31.2683L75.7523 26.842H76.9339L77.6015 29.7424H77.6382L78.4008 26.842H79.3642L80.1268 29.7489H80.1635L80.8332 26.842H82.0127L80.7274 31.2683H79.6969L78.8998 28.584H78.8652L78.0681 31.2683H77.0398Z" fill="#82786F"/>
<path d="M83.6351 31.3309C83.2866 31.3309 82.987 31.2596 82.7364 31.117C82.4873 30.9729 82.295 30.7726 82.1596 30.5162C82.0257 30.2583 81.9587 29.9593 81.9587 29.6192C81.9587 29.2778 82.0257 28.9788 82.1596 28.7223C82.295 28.4644 82.4873 28.2641 82.7364 28.1215C82.987 27.9774 83.2866 27.9054 83.6351 27.9054C83.9836 27.9054 84.2824 27.9774 84.5316 28.1215C84.7822 28.2641 84.9745 28.4644 85.1084 28.7223C85.2438 28.9788 85.3115 29.2778 85.3115 29.6192C85.3115 29.9593 85.2438 30.2583 85.1084 30.5162C84.9745 30.7726 84.7822 30.9729 84.5316 31.117C84.2824 31.2596 83.9836 31.3309 83.6351 31.3309ZM83.6416 30.5335C83.7683 30.5335 83.8756 30.4945 83.9635 30.4167C84.0513 30.3389 84.1183 30.2309 84.1644 30.0926C84.2119 29.9542 84.2356 29.7943 84.2356 29.6128C84.2356 29.4283 84.2119 29.267 84.1644 29.1286C84.1183 28.9903 84.0513 28.8823 83.9635 28.8045C83.8756 28.7266 83.7683 28.6877 83.6416 28.6877C83.5105 28.6877 83.3996 28.7266 83.3089 28.8045C83.2196 28.8823 83.1512 28.9903 83.1037 29.1286C83.0576 29.267 83.0345 29.4283 83.0345 29.6128C83.0345 29.7943 83.0576 29.9542 83.1037 30.0926C83.1512 30.2309 83.2196 30.3389 83.3089 30.4167C83.3996 30.4945 83.5105 30.5335 83.6416 30.5335Z" fill="#82786F"/>
<path d="M85.8526 31.2683V27.9486H86.8787V28.5537H86.9133C86.9738 28.3347 87.0724 28.1719 87.2093 28.0653C87.3461 27.9572 87.5052 27.9032 87.6867 27.9032C87.7356 27.9032 87.786 27.9068 87.8379 27.914C87.8897 27.9198 87.938 27.9291 87.9826 27.9421V28.8606C87.9322 28.8434 87.866 28.8297 87.7839 28.8196C87.7032 28.8095 87.6312 28.8045 87.5679 28.8045C87.4426 28.8045 87.3295 28.8325 87.2287 28.8887C87.1293 28.9435 87.0508 29.0206 86.9932 29.12C86.9371 29.218 86.909 29.3332 86.909 29.4658V31.2683H85.8526Z" fill="#82786F"/>
<path d="M89.3657 30.3973L89.3701 29.1373H89.517L90.4502 27.9486H91.647L90.2601 29.6517H89.9814L89.3657 30.3973ZM88.4131 31.2683V26.842H89.4694V31.2683H88.4131ZM90.474 31.2683L89.6055 29.8894L90.3011 29.1394L91.6945 31.2683H90.474Z" fill="#82786F"/>
<path d="M93.9109 27.9486V28.7266H91.7766V27.9486H93.9109ZM92.2216 31.2683V27.78C92.2216 27.5236 92.2699 27.311 92.3664 27.1425C92.4629 26.9724 92.5968 26.8456 92.7682 26.7621C92.9396 26.6771 93.1376 26.6346 93.3622 26.6346C93.5091 26.6346 93.6474 26.6461 93.777 26.6691C93.9081 26.6908 94.0053 26.7102 94.0687 26.7275L93.9001 27.5012C93.8613 27.4883 93.8137 27.4774 93.7576 27.4688C93.7028 27.4602 93.651 27.4558 93.602 27.4558C93.4782 27.4558 93.3932 27.4832 93.3471 27.538C93.301 27.5927 93.278 27.6676 93.278 27.7627V31.2683H92.2216Z" fill="#82786F"/>
<path d="M95.8611 31.3309C95.5126 31.3309 95.2131 31.2596 94.9625 31.117C94.7133 30.9729 94.521 30.7726 94.3857 30.5162C94.2517 30.2583 94.1848 29.9593 94.1848 29.6192C94.1848 29.2778 94.2517 28.9788 94.3857 28.7223C94.521 28.4644 94.7133 28.2641 94.9625 28.1215C95.2131 27.9774 95.5126 27.9054 95.8611 27.9054C96.2097 27.9054 96.5085 27.9774 96.7576 28.1215C97.0082 28.2641 97.2005 28.4644 97.3344 28.7223C97.4698 28.9788 97.5375 29.2778 97.5375 29.6192C97.5375 29.9593 97.4698 30.2583 97.3344 30.5162C97.2005 30.7726 97.0082 30.9729 96.7576 31.117C96.5085 31.2596 96.2097 31.3309 95.8611 31.3309ZM95.8676 30.5335C95.9944 30.5335 96.1016 30.4945 96.1895 30.4167C96.2774 30.3389 96.3443 30.2309 96.3904 30.0926C96.4379 29.9542 96.4617 29.7943 96.4617 29.6128C96.4617 29.4283 96.4379 29.267 96.3904 29.1286C96.3443 28.9903 96.2774 28.8823 96.1895 28.8045C96.1016 28.7266 95.9944 28.6877 95.8676 28.6877C95.7366 28.6877 95.6257 28.7266 95.5349 28.8045C95.4456 28.8823 95.3772 28.9903 95.3297 29.1286C95.2836 29.267 95.2606 29.4283 95.2606 29.6128C95.2606 29.7943 95.2836 29.9542 95.3297 30.0926C95.3772 30.2309 95.4456 30.3389 95.5349 30.4167C95.6257 30.4945 95.7366 30.5335 95.8676 30.5335Z" fill="#82786F"/>
<path d="M98.0787 31.2683V27.9486H99.1048V28.5537H99.1393C99.1998 28.3347 99.2985 28.1719 99.4353 28.0653C99.5721 27.9572 99.7313 27.9032 99.9127 27.9032C99.9617 27.9032 100.012 27.9068 100.064 27.914C100.116 27.9198 100.164 27.9291 100.209 27.9421V28.8606C100.158 28.8434 100.092 28.8297 100.01 28.8196C99.9293 28.8095 99.8573 28.8045 99.7939 28.8045C99.6686 28.8045 99.5556 28.8325 99.4547 28.8887C99.3554 28.9435 99.2769 29.0206 99.2193 29.12C99.1631 29.218 99.135 29.3332 99.135 29.4658V31.2683H98.0787Z" fill="#82786F"/>
<path d="M102.016 31.3309C101.666 31.3309 101.366 31.2589 101.115 31.1148C100.866 30.9707 100.674 30.7705 100.54 30.514C100.406 30.2561 100.339 29.9578 100.339 29.6192C100.339 29.2792 100.406 28.981 100.54 28.7245C100.676 28.4666 100.868 28.2656 101.117 28.1215C101.368 27.9774 101.666 27.9054 102.014 27.9054C102.32 27.9054 102.588 27.9608 102.815 28.0718C103.044 28.1827 103.223 28.3398 103.351 28.5429C103.48 28.7447 103.549 28.9817 103.556 29.254H102.569C102.549 29.084 102.491 28.9507 102.396 28.8542C102.302 28.7576 102.18 28.7094 102.029 28.7094C101.906 28.7094 101.799 28.7439 101.707 28.8131C101.615 28.8808 101.543 28.9817 101.491 29.1157C101.44 29.2482 101.415 29.4125 101.415 29.6084C101.415 29.8044 101.44 29.9701 101.491 30.1055C101.543 30.2395 101.615 30.3411 101.707 30.4103C101.799 30.478 101.906 30.5118 102.029 30.5118C102.127 30.5118 102.213 30.4909 102.288 30.4492C102.364 30.4074 102.427 30.3461 102.476 30.2655C102.525 30.1833 102.556 30.0839 102.569 29.9672H103.556C103.546 30.241 103.478 30.4801 103.351 30.6847C103.225 30.8893 103.049 31.0485 102.822 31.1624C102.595 31.2748 102.327 31.3309 102.016 31.3309Z" fill="#82786F"/>
<path d="M105.648 31.3309C105.301 31.3309 105.001 31.2625 104.749 31.1256C104.498 30.9873 104.305 30.7906 104.17 30.5356C104.036 30.2791 103.969 29.9744 103.969 29.6214C103.969 29.2785 104.037 28.9788 104.172 28.7223C104.308 28.4644 104.498 28.2641 104.745 28.1215C104.991 27.9774 105.281 27.9054 105.615 27.9054C105.851 27.9054 106.068 27.9421 106.263 28.0156C106.459 28.0891 106.628 28.1979 106.771 28.3419C106.914 28.486 107.025 28.664 107.104 28.8758C107.183 29.0861 107.223 29.3275 107.223 29.5998V29.8635H104.339V29.2497H106.24C106.238 29.1373 106.212 29.0371 106.16 28.9493C106.108 28.8614 106.037 28.7929 105.946 28.7439C105.857 28.6935 105.754 28.6683 105.637 28.6683C105.519 28.6683 105.413 28.6949 105.319 28.7483C105.226 28.8001 105.152 28.8715 105.097 28.9622C105.042 29.0516 105.013 29.1531 105.01 29.267V29.8916C105.01 30.027 105.037 30.1459 105.09 30.2482C105.144 30.349 105.219 30.4275 105.317 30.4837C105.415 30.5399 105.532 30.568 105.667 30.568C105.761 30.568 105.846 30.5551 105.922 30.5291C105.998 30.5032 106.064 30.465 106.119 30.4146C106.173 30.3642 106.214 30.3022 106.242 30.2287L107.212 30.2568C107.171 30.4744 107.083 30.6638 106.946 30.8252C106.811 30.9852 106.633 31.1098 106.412 31.1991C106.192 31.287 105.937 31.3309 105.648 31.3309Z" fill="#82786F"/>
</svg>
