<svg width="16" height="16" viewBox="0 0 16 16" fill="none" xmlns="http://www.w3.org/2000/svg">
<g clip-path="url(#clip0_12_654)">
<path d="M14.3624 3.64998H8.57995V0.30195C8.57995 0.13363 8.44324 -0.00234985 8.27565 -0.00234985H0.970987C0.802666 -0.00234985 0.666687 0.134365 0.666687 0.30195V15.2773C0.666687 15.4456 0.803401 15.5802 0.970987 15.5802H8.27565H14.3624C14.5307 15.5802 14.6667 15.4449 14.6667 15.2773V3.95428C14.6667 3.7867 14.5307 3.64998 14.3624 3.64998ZM8.57995 4.25858H14.0581V11.9278H8.57995V4.25858ZM3.71042 14.9723V12.5364H5.53622V14.9723H3.71042ZM5.84052 11.9278H3.40539C3.23707 11.9278 3.10109 12.0645 3.10109 12.2321V14.973H1.27529V0.60625H7.97135V14.9723H6.14555V12.2314C6.14555 12.0638 6.00884 11.9278 5.84052 11.9278ZM8.57995 14.9723V12.5364H14.0581V14.9723H8.57995Z" fill="#8B8B8B"/>
<rect x="1" y="0.5" width="7" height="14.5" fill="#8B8B8B"/>
<path d="M4.31901 2.43204H4.92761C5.09593 2.43204 5.23191 2.29606 5.23191 2.12774V1.51914C5.23191 1.35082 5.09519 1.21484 4.92761 1.21484H4.31901C4.15069 1.21484 4.01471 1.35156 4.01471 1.51914V2.12774C4.01471 2.29606 4.15069 2.43204 4.31901 2.43204Z" fill="white"/>
<path d="M4.31901 4.56287H4.92761C5.09593 4.56287 5.23191 4.4269 5.23191 4.25857V3.64998C5.23191 3.48165 5.09519 3.34494 4.92761 3.34494H4.31901C4.15069 3.34494 4.01471 3.48165 4.01471 3.64998V4.25857C4.01471 4.4269 4.15069 4.56287 4.31901 4.56287Z" fill="white"/>
<path d="M4.31901 6.69373H4.92761C5.09593 6.69373 5.23191 6.55702 5.23191 6.38943V5.78083C5.23191 5.61251 5.09519 5.47653 4.92761 5.47653H4.31901C4.15069 5.47653 4.01471 5.61251 4.01471 5.78083V6.38943C4.01471 6.55702 4.15069 6.69373 4.31901 6.69373Z" fill="white"/>
<path d="M4.31901 8.8238H4.92761C5.09593 8.8238 5.23191 8.68708 5.23191 8.5195V7.9109C5.23191 7.74258 5.09519 7.6066 4.92761 7.6066H4.31901C4.15069 7.6066 4.01471 7.74258 4.01471 7.9109V8.5195C4.01471 8.68782 4.15069 8.8238 4.31901 8.8238Z" fill="white"/>
<path d="M4.31901 10.9547H4.92761C5.09593 10.9547 5.23191 10.8179 5.23191 10.6504V10.0418C5.23191 9.87344 5.09519 9.73746 4.92761 9.73746H4.31901C4.15069 9.73746 4.01471 9.87417 4.01471 10.0418V10.6504C4.01471 10.8179 4.15069 10.9547 4.31901 10.9547Z" fill="white"/>
<path d="M2.18821 2.43204H2.79681C2.96513 2.43204 3.10111 2.29606 3.10111 2.12774V1.51914C3.10111 1.35082 2.9644 1.21484 2.79681 1.21484H2.18821C2.01989 1.21484 1.88391 1.35156 1.88391 1.51914V2.12774C1.88391 2.29606 2.02063 2.43204 2.18821 2.43204Z" fill="white"/>
<path d="M2.18821 4.56287H2.79681C2.96513 4.56287 3.10111 4.4269 3.10111 4.25857V3.64998C3.10111 3.48165 2.9644 3.34494 2.79681 3.34494H2.18821C2.01989 3.34494 1.88391 3.48165 1.88391 3.64998V4.25857C1.88391 4.4269 2.02063 4.56287 2.18821 4.56287Z" fill="white"/>
<path d="M2.18821 6.69373H2.79681C2.96513 6.69373 3.10111 6.55702 3.10111 6.38943V5.78083C3.10111 5.61251 2.9644 5.47653 2.79681 5.47653H2.18821C2.01989 5.47653 1.88391 5.61251 1.88391 5.78083V6.38943C1.88391 6.55702 2.02063 6.69373 2.18821 6.69373Z" fill="white"/>
<path d="M2.18821 8.8238H2.79681C2.96513 8.8238 3.10111 8.68708 3.10111 8.5195V7.9109C3.10111 7.74258 2.9644 7.6066 2.79681 7.6066H2.18821C2.01989 7.6066 1.88391 7.74258 1.88391 7.9109V8.5195C1.88391 8.68782 2.02063 8.8238 2.18821 8.8238Z" fill="white"/>
<path d="M2.18821 10.9547H2.79681C2.96513 10.9547 3.10111 10.8179 3.10111 10.6504V10.0418C3.10111 9.87344 2.9644 9.73746 2.79681 9.73746H2.18821C2.01989 9.73746 1.88391 9.87417 1.88391 10.0418V10.6504C1.88391 10.8179 2.02063 10.9547 2.18821 10.9547Z" fill="white"/>
<path d="M7.05841 1.21484H6.44981C6.28149 1.21484 6.14551 1.35156 6.14551 1.51914V2.12774C6.14551 2.29606 6.28149 2.43204 6.44981 2.43204H7.05841C7.22673 2.43204 7.36271 2.29606 7.36271 2.12774V1.51914C7.36271 1.35156 7.22599 1.21484 7.05841 1.21484Z" fill="white"/>
<path d="M7.05841 3.34567H6.44981C6.28149 3.34567 6.14551 3.48239 6.14551 3.65071V4.25931C6.14551 4.42763 6.28149 4.56361 6.44981 4.56361H7.05841C7.22673 4.56361 7.36271 4.42763 7.36271 4.25931V3.64997C7.36271 3.48165 7.22599 3.34567 7.05841 3.34567Z" fill="white"/>
<path d="M7.05841 5.47653H6.44981C6.28149 5.47653 6.14551 5.61251 6.14551 5.78083V6.39017C6.14551 6.55849 6.28149 6.69447 6.44981 6.69447H7.05841C7.22673 6.69447 7.36271 6.55775 7.36271 6.39017V5.7801C7.36271 5.61251 7.22599 5.47653 7.05841 5.47653Z" fill="white"/>
<path d="M7.05841 7.6066H6.44981C6.28149 7.6066 6.14551 7.74258 6.14551 7.9109V8.5195C6.14551 8.68782 6.28149 8.8238 6.44981 8.8238H7.05841C7.22673 8.8238 7.36271 8.68708 7.36271 8.5195V7.9109C7.36271 7.74331 7.22599 7.6066 7.05841 7.6066Z" fill="white"/>
<path d="M7.05841 9.73669H6.44981C6.28149 9.73669 6.14551 9.87341 6.14551 10.041V10.6496C6.14551 10.8179 6.28149 10.9539 6.44981 10.9539H7.05841C7.22673 10.9539 7.36271 10.8172 7.36271 10.6496V10.041C7.36271 9.87341 7.22599 9.73669 7.05841 9.73669Z" fill="white"/>
<path d="M12.6888 5.47653H12.0802C11.9119 5.47653 11.7759 5.61251 11.7759 5.78083V6.39017C11.7759 6.55849 11.9126 6.69447 12.0802 6.69447H12.6888C12.8571 6.69447 12.9931 6.55775 12.9931 6.39017V5.7801C12.9931 5.61251 12.8564 5.47653 12.6888 5.47653Z" fill="#8B8B8B"/>
<path d="M12.6888 7.6066H12.0802C11.9119 7.6066 11.7759 7.74258 11.7759 7.9109V8.5195C11.7759 8.68782 11.9126 8.8238 12.0802 8.8238H12.6888C12.8571 8.8238 12.9931 8.68708 12.9931 8.5195V7.9109C12.9931 7.74331 12.8564 7.6066 12.6888 7.6066Z" fill="#8B8B8B"/>
<path d="M12.6888 9.73669H12.0802C11.9119 9.73669 11.7759 9.87341 11.7759 10.041V10.6496C11.7759 10.8179 11.9126 10.9539 12.0802 10.9539H12.6888C12.8571 10.9539 12.9931 10.8172 12.9931 10.6496V10.041C12.9931 9.87341 12.8564 9.73669 12.6888 9.73669Z" fill="#8B8B8B"/>
<path d="M10.5579 5.47653H9.94932C9.781 5.47653 9.64502 5.61251 9.64502 5.78083V6.39017C9.64502 6.55849 9.78173 6.69447 9.94932 6.69447H10.5579C10.7262 6.69447 10.8622 6.55775 10.8622 6.39017V5.7801C10.8622 5.61251 10.7262 5.47653 10.5579 5.47653Z" fill="#8B8B8B"/>
<path d="M10.5579 7.6066H9.94932C9.781 7.6066 9.64502 7.74258 9.64502 7.9109V8.5195C9.64502 8.68782 9.78173 8.8238 9.94932 8.8238H10.5579C10.7262 8.8238 10.8622 8.68708 10.8622 8.5195V7.9109C10.8622 7.74331 10.7262 7.6066 10.5579 7.6066Z" fill="#8B8B8B"/>
<path d="M10.5579 9.73669H9.94932C9.781 9.73669 9.64502 9.87341 9.64502 10.041V10.6496C9.64502 10.8179 9.78173 10.9539 9.94932 10.9539H10.5579C10.7262 10.9539 10.8622 10.8172 10.8622 10.6496V10.041C10.8622 9.87341 10.7262 9.73669 10.5579 9.73669Z" fill="#8B8B8B"/>
<rect x="3" y="12" width="3" height="3" fill="white"/>
</g>
<defs>
<clipPath id="clip0_12_654">
<rect width="16" height="16" fill="white"/>
</clipPath>
</defs>
</svg>
