<svg width="16" height="15" viewBox="0 0 16 15" fill="none" xmlns="http://www.w3.org/2000/svg">
<path d="M12.6842 2.84153C12.6842 3.30678 12.3067 3.68421 11.8407 3.68421C11.3783 3.68421 11 3.30721 11 2.84153C11 2.37614 11.3781 2 11.8407 2C12.3067 1.99986 12.6842 2.37614 12.6842 2.84153Z" fill="#8B8B8B"/>
<path d="M10 2H2V6H10V2Z" fill="#8B8B8B"/>
<path d="M3 8H2V9H3V8Z" fill="#8B8B8B"/>
<path d="M10 11H3V14H10V11Z" fill="#8B8B8B"/>
<path d="M8.26434 11.0969L0.680597 11.0903V0.692539H13.6352V5.76368H14.3158V0H0V11.7828L8.26434 11.7895V11.0969Z" fill="#8B8B8B"/>
<path d="M9.68413 6.80873L10.7426 7.86737C10.8573 8.39758 10.0885 9.1755 9.55187 9.05812L8.49345 7.9998C8.4452 8.16364 8.42108 8.33331 8.42108 8.50282C8.42108 8.95256 8.59139 9.40167 8.93475 9.74537C9.31389 10.1245 9.82287 10.2948 10.3187 10.2565C10.5807 10.2362 10.8386 10.3322 11.0244 10.5181L13.7367 13.23C13.8989 13.3923 14.1116 13.4737 14.3253 13.4737C14.7915 13.4737 15.1676 13.091 15.1577 12.6234C15.1534 12.4162 15.0718 12.2106 14.9141 12.0527L12.2021 9.33998C12.0163 9.15445 11.9206 8.89622 11.9405 8.63444C11.9789 8.13839 11.8083 7.62938 11.4296 7.25055C11.0859 6.90684 10.6368 6.73685 10.1868 6.73685C10.0175 6.73669 9.84796 6.76081 9.68413 6.80873ZM14.5963 12.6315C14.5963 12.7866 14.4708 12.9122 14.3156 12.9122C14.1605 12.9122 14.0349 12.7868 14.0349 12.6315C14.0349 12.4764 14.1605 12.3508 14.3156 12.3508C14.4707 12.3508 14.5963 12.4764 14.5963 12.6315Z" fill="#8B8B8B"/>
</svg>
