<svg width="16" height="16" viewBox="0 0 16 16" fill="none" xmlns="http://www.w3.org/2000/svg">
<g clip-path="url(#clip0_140_45)">
<path d="M16 9.07733V6.92267C14.8993 6.53133 14.204 6.42133 13.854 5.57667C13.5027 4.72933 13.9207 4.15333 14.4187 3.10467L12.8953 1.58133C11.8547 2.076 11.2733 2.498 10.424 2.146C9.578 1.79533 9.46667 1.09533 9.07733 0H6.92267C6.53467 1.09 6.42333 1.79467 5.57667 2.146C4.72933 2.498 4.15467 2.08067 3.10467 1.58133L1.58133 3.10467C2.078 4.15 2.498 4.72733 2.146 5.576C1.79467 6.42333 1.09 6.53467 0 6.92267V9.07733C1.088 9.464 1.79467 9.57667 2.146 10.4233C2.49933 11.278 2.07 11.8673 1.58133 12.8947L3.10467 14.4187C4.146 13.9233 4.72733 13.502 5.576 13.854C6.42267 14.2047 6.534 14.9067 6.92267 16H9.07733C9.46533 14.9093 9.57733 14.2067 10.4287 13.852H10.4293C11.2707 13.5027 11.8427 13.9193 12.8947 14.4193L14.418 12.8953C13.922 11.8533 13.5013 11.2733 13.8527 10.4247C14.204 9.57733 14.9113 9.46467 16 9.07733ZM8 10.6667C6.52733 10.6667 5.33333 9.47267 5.33333 8C5.33333 6.52733 6.52733 5.33333 8 5.33333C9.47267 5.33333 10.6667 6.52733 10.6667 8C10.6667 9.47267 9.47267 10.6667 8 10.6667Z" fill="#8B8B8B"/>
</g>
<defs>
<clipPath id="clip0_140_45">
<rect width="16" height="16" fill="white"/>
</clipPath>
</defs>
</svg>
