<svg width="16" height="15" viewBox="0 0 16 15" fill="none" xmlns="http://www.w3.org/2000/svg">
<path d="M12.6842 2.84153C12.6842 3.30678 12.3067 3.68421 11.8407 3.68421C11.3783 3.68421 11 3.30721 11 2.84153C11 2.37614 11.3781 2 11.8407 2C12.3067 1.99986 12.6842 2.37614 12.6842 2.84153Z" fill="#8B8B8B"/>
<path d="M10 2H2V6H10V2Z" fill="#8B8B8B"/>
<path d="M3 8H2V9H3V8Z" fill="#8B8B8B"/>
<path d="M7 11H3V14H7V11Z" fill="#8B8B8B"/>
<path d="M7 11.0969L0.680597 11.0903V0.692539H13.6352V5.76368H14.3158V0H0V11.7828L7 11.7895V11.0969Z" fill="#8B8B8B"/>
<path d="M11.9997 7C12.2216 7 12.4263 7.11719 12.5388 7.30937L15.9141 13.0594C16.0281 13.2531 16.0281 13.4922 15.9172 13.6859C15.8062 13.8797 15.5984 14 15.375 14H8.62447C8.40101 14 8.19319 13.8797 8.08224 13.6859C7.9713 13.4922 7.97286 13.2516 8.08537 13.0594L11.4606 7.30937C11.5731 7.11719 11.7778 7 11.9997 7ZM11.9997 9C11.7919 9 11.6247 9.16719 11.6247 9.375V11.125C11.6247 11.3328 11.7919 11.5 11.9997 11.5C12.2075 11.5 12.3747 11.3328 12.3747 11.125V9.375C12.3747 9.16719 12.2075 9 11.9997 9ZM12.4997 12.5C12.4997 12.3674 12.4471 12.2402 12.3533 12.1464C12.2595 12.0527 12.1323 12 11.9997 12C11.8671 12 11.7399 12.0527 11.6461 12.1464C11.5524 12.2402 11.4997 12.3674 11.4997 12.5C11.4997 12.6326 11.5524 12.7598 11.6461 12.8536C11.7399 12.9473 11.8671 13 11.9997 13C12.1323 13 12.2595 12.9473 12.3533 12.8536C12.4471 12.7598 12.4997 12.6326 12.4997 12.5Z" fill="#8B8B8B"/>
</svg>
